<svg version="1.1" viewBox="0.0 0.0 822.0 509.0" fill="none" stroke="none" stroke-linecap="square" stroke-miterlimit="10" width="822" height="509" xmlns:xlink="http://www.w3.org/1999/xlink" xmlns="http://www.w3.org/2000/svg"><path fill="#8ddfb9" d="M0 0L822.0 0L822.0 509.0L0 509.0L0 0Z" fill-rule="nonzero"/><path fill="#3c5e4e" d="M411.0 76.98625C459.86746 76.98625 507.45404 87.92651 546.80554 108.208244L411.0 237.32124Z" fill-rule="nonzero"/><path fill="#68a761" d="M640.05 271.67874C640.05 317.2964 612.2909 360.7543 563.72345 391.17072L563.72345 356.81323C612.2909 326.3968 640.05 282.93887 640.05 237.32124Z" fill-rule="nonzero"/><path fill="#94ee8a" d="M546.80554 108.208244C602.3512 136.83641 636.5085 181.46255 639.7906 229.6922C643.07263 277.92184 615.13 324.6187 563.72345 356.81323L411.0 237.32124Z" fill-rule="nonzero"/><path fill="#41b833" d="M252.93741 121.28136C295.53714 92.84822 352.13898 76.98625 411.0 76.98625L411.0 237.32124Z" fill-rule="nonzero"/><path fill="#2f4b2b" d="M220.29988 360.49152C195.292 334.17987 181.95 303.2817 181.95 271.67874L181.95 237.32124C181.95 268.9242 195.292 299.82236 220.29988 326.13403Z" fill-rule="nonzero"/><path fill="#436b3e" d="M220.29988 326.13403C158.72806 261.35214 172.48965 174.97609 252.93741 121.28136L411.0 237.32124Z" fill-rule="nonzero"/><path fill="#349629" d="M563.72345 391.17072C514.21124 422.1788 447.9052 436.611 382.004 430.72382C316.10278 424.83664 257.09995 399.21017 220.29988 360.49152L220.29988 326.13403C257.09995 364.8527 316.10278 390.47916 382.004 396.36633C447.9052 402.2535 514.21124 387.82132 563.72345 356.81323Z" fill-rule="nonzero"/><path fill="#4ad63b" d="M563.72345 356.81323C514.21124 387.82132 447.9052 402.2535 382.004 396.36633C316.10278 390.47916 257.09995 364.8527 220.29988 326.13403L411.0 237.32124Z" fill-rule="nonzero"/><path fill="#1a1a1a" d="M32.5125 88.39825L33.6375 88.69512Q33.278126 90.08575 32.35625 90.82012Q31.434376 91.5545 30.090626 91.5545Q28.7 91.5545 27.825 90.992Q26.95 90.4295 26.496876 89.367Q26.04375 88.28887 26.04375 87.0545Q26.04375 85.71075 26.559376 84.71075Q27.075 83.71075 28.0125 83.19512Q28.965626 82.6795 30.10625 82.6795Q31.3875 82.6795 32.2625 83.33575Q33.153126 83.992 33.496876 85.1795L32.371876 85.44512Q32.075 84.50762 31.496876 84.08575Q30.934376 83.64825 30.075 83.64825Q29.090626 83.64825 28.41875 84.13262Q27.7625 84.60137 27.48125 85.39825Q27.215626 86.19512 27.215626 87.0545Q27.215626 88.14825 27.528126 88.96075Q27.85625 89.77325 28.528126 90.1795Q29.2 90.58575 29.996876 90.58575Q30.95 90.58575 31.60625 90.03887Q32.278126 89.492 32.5125 88.39825ZM34.85625 88.3045Q34.85625 86.57012 35.809376 85.742Q36.60625 85.0545 37.7625 85.0545Q39.04375 85.0545 39.85625 85.89825Q40.684376 86.72637 40.684376 88.21075Q40.684376 89.41387 40.325 90.10137Q39.965626 90.78887 39.2625 91.1795Q38.575 91.5545 37.7625 91.5545Q36.465626 91.5545 35.653126 90.72637Q34.85625 89.88262 34.85625 88.3045ZM35.934376 88.3045Q35.934376 89.492 36.45 90.08575Q36.98125 90.6795 37.7625 90.6795Q38.559376 90.6795 39.075 90.08575Q39.590626 89.492 39.590626 88.27325Q39.590626 87.117 39.059376 86.52325Q38.54375 85.9295 37.7625 85.9295Q36.98125 85.9295 36.45 86.52325Q35.934376 87.10137 35.934376 88.3045ZM42.246876 91.41387L42.246876 85.19512L43.184376 85.19512L43.184376 86.07012Q43.48125 85.60137 43.965626 85.33575Q44.45 85.0545 45.075 85.0545Q45.7625 85.0545 46.2 85.33575Q46.653126 85.617 46.825 86.13262Q47.575 85.0545 48.746876 85.0545Q49.684376 85.0545 50.16875 85.57012Q50.66875 86.07012 50.66875 87.14825L50.66875 91.41387L49.621876 91.41387L49.621876 87.492Q49.621876 86.867 49.5125 86.58575Q49.41875 86.3045 49.153126 86.13262Q48.8875 85.96075 48.5125 85.96075Q47.85625 85.96075 47.41875 86.39825Q46.996876 86.83575 46.996876 87.8045L46.996876 91.41387L45.934376 91.41387L45.934376 87.367Q45.934376 86.66387 45.66875 86.32012Q45.41875 85.96075 44.840626 85.96075Q44.3875 85.96075 44.0125 86.19512Q43.6375 86.4295 43.465626 86.88262Q43.29375 87.33575 43.29375 88.1795L43.29375 91.41387L42.246876 91.41387ZM52.246876 91.41387L52.246876 85.19512L53.184376 85.19512L53.184376 86.07012Q53.48125 85.60137 53.965626 85.33575Q54.45 85.0545 55.075 85.0545Q55.7625 85.0545 56.2 85.33575Q56.653126 85.617 56.825 86.13262Q57.575 85.0545 58.746876 85.0545Q59.684376 85.0545 60.16875 85.57012Q60.66875 86.07012 60.66875 87.14825L60.66875 91.41387L59.621876 91.41387L59.621876 87.492Q59.621876 86.867 59.5125 86.58575Q59.41875 86.3045 59.153126 86.13262Q58.8875 85.96075 58.5125 85.96075Q57.85625 85.96075 57.41875 86.39825Q56.996876 86.83575 56.996876 87.8045L56.996876 91.41387L55.934376 91.41387L55.934376 87.367Q55.934376 86.66387 55.66875 86.32012Q55.41875 85.96075 54.840626 85.96075Q54.3875 85.96075 54.0125 86.19512Q53.6375 86.4295 53.465626 86.88262Q53.29375 87.33575 53.29375 88.1795L53.29375 91.41387L52.246876 91.41387ZM66.49687 89.41387L67.59062 89.53887Q67.34062 90.492 66.6375 91.02325Q65.93437 91.5545 64.85625 91.5545Q63.496876 91.5545 62.684376 90.71075Q61.8875 89.867 61.8875 88.35137Q61.8875 86.78887 62.7 85.9295Q63.5125 85.0545 64.79375 85.0545Q66.04375 85.0545 66.825 85.89825Q67.62187 86.742 67.62187 88.28887Q67.62187 88.38262 67.62187 88.57012L62.98125 88.57012Q63.04375 89.60137 63.559376 90.14825Q64.075 90.6795 64.85625 90.6795Q65.43437 90.6795 65.84062 90.38262Q66.2625 90.07012 66.49687 89.41387ZM63.04375 87.71075L66.5125 87.71075Q66.45 86.91387 66.12187 86.52325Q65.60625 85.91387 64.80937 85.91387Q64.075 85.91387 63.575 86.39825Q63.090626 86.88262 63.04375 87.71075ZM69.23125 91.41387L69.23125 85.19512L70.18437 85.19512L70.18437 86.13262Q70.54375 85.47637 70.84062 85.27325Q71.15312 85.0545 71.52812 85.0545Q72.05937 85.0545 72.60625 85.38262L72.24687 86.367Q71.85625 86.13262 71.48125 86.13262Q71.12187 86.13262 70.84062 86.35137Q70.575 86.5545 70.46562 86.9295Q70.27812 87.492 70.27812 88.14825L70.27812 91.41387L69.23125 91.41387ZM77.30937 89.13262L78.34062 89.27325Q78.16875 90.33575 77.46562 90.94512Q76.7625 91.5545 75.74687 91.5545Q74.46562 91.5545 73.68437 90.72637Q72.91875 89.88262 72.91875 88.32012Q72.91875 87.32012 73.24687 86.57012Q73.59062 85.8045 74.2625 85.4295Q74.95 85.0545 75.7625 85.0545Q76.7625 85.0545 77.40312 85.57012Q78.05937 86.07012 78.24687 87.02325L77.21562 87.1795Q77.075 86.5545 76.7 86.242Q76.325 85.91387 75.79375 85.91387Q74.99687 85.91387 74.49687 86.492Q73.99687 87.0545 73.99687 88.28887Q73.99687 89.5545 74.48125 90.117Q74.96562 90.6795 75.73125 90.6795Q76.35625 90.6795 76.7625 90.3045Q77.18437 89.9295 77.30937 89.13262ZM79.24687 84.03887L79.24687 82.82012L80.30937 82.82012L80.30937 84.03887L79.24687 84.03887ZM79.24687 91.41387L79.24687 85.19512L80.30937 85.19512L80.30937 91.41387L79.24687 91.41387ZM86.30937 90.64825Q85.71562 91.14825 85.16875 91.35137Q84.6375 91.5545 84.0125 91.5545Q82.98125 91.5545 82.43437 91.0545Q81.8875 90.5545 81.8875 89.77325Q81.8875 89.32012 82.09062 88.94512Q82.29375 88.5545 82.6375 88.33575Q82.98125 88.10137 83.40312 87.992Q83.7 87.89825 84.34062 87.82012Q85.60625 87.6795 86.21562 87.46075Q86.21562 87.242 86.21562 87.19512Q86.21562 86.53887 85.91875 86.27325Q85.5125 85.9295 84.71562 85.9295Q83.98125 85.9295 83.62187 86.19512Q83.2625 86.44512 83.09062 87.10137L82.05937 86.96075Q82.2 86.3045 82.52812 85.89825Q82.85625 85.492 83.46562 85.27325Q84.075 85.0545 84.87187 85.0545Q85.66875 85.0545 86.16875 85.242Q86.66875 85.4295 86.90312 85.71075Q87.1375 85.992 87.23125 86.4295Q87.27812 86.69512 87.27812 87.39825L87.27812 88.8045Q87.27812 90.27325 87.34062 90.66387Q87.41875 91.0545 87.62187 91.41387L86.5125 91.41387Q86.35625 91.08575 86.30937 90.64825ZM86.21562 88.28887Q85.6375 88.52325 84.49687 88.69512Q83.84062 88.78887 83.575 88.91387Q83.30937 89.02325 83.15312 89.242Q83.0125 89.46075 83.0125 89.742Q83.0125 90.16387 83.325 90.44512Q83.65312 90.72637 84.2625 90.72637Q84.87187 90.72637 85.34062 90.46075Q85.825 90.19512 86.04375 89.72637Q86.21562 89.367 86.21562 88.6795L86.21562 88.28887ZM89.21562 91.41387L89.21562 82.82012L90.27812 82.82012L90.27812 91.41387L89.21562 91.41387ZM100.15312 90.39825Q99.6375 90.97637 99.0125 91.27325Q98.40312 91.5545 97.68437 91.5545Q96.37187 91.5545 95.59062 90.66387Q94.96562 89.94512 94.96562 89.03887Q94.96562 88.242 95.48125 87.60137Q95.99687 86.96075 97.0125 86.47637Q96.43437 85.8045 96.23125 85.39825Q96.04375 84.97637 96.04375 84.58575Q96.04375 83.82012 96.65312 83.25762Q97.2625 82.6795 98.18437 82.6795Q99.05937 82.6795 99.60625 83.22637Q100.16875 83.75762 100.16875 84.50762Q100.16875 85.742 98.55937 86.60137L100.09062 88.57012Q100.35625 88.0545 100.49687 87.367L101.60625 87.60137Q101.325 88.72637 100.84062 89.46075Q101.43437 90.242 102.18437 90.77325L101.46562 91.617Q100.825 91.19512 100.15312 90.39825ZM98.0125 85.9295Q98.7 85.52325 98.8875 85.22637Q99.09062 84.91387 99.09062 84.53887Q99.09062 84.10137 98.80937 83.82012Q98.54375 83.53887 98.12187 83.53887Q97.7 83.53887 97.40312 83.82012Q97.12187 84.10137 97.12187 84.492Q97.12187 84.69512 97.23125 84.91387Q97.34062 85.13262 97.54375 85.38262L98.0125 85.9295ZM99.49687 89.57012L97.55937 87.16387Q96.7 87.6795 96.40312 88.117Q96.10625 88.5545 96.10625 88.97637Q96.10625 89.50762 96.5125 90.07012Q96.93437 90.63262 97.7 90.63262Q98.16875 90.63262 98.66875 90.33575Q99.18437 90.03887 99.49687 89.57012ZM106.3875 91.41387L106.3875 82.82012L110.2 82.82012Q111.35625 82.82012 111.95 83.0545Q112.54375 83.28887 112.90312 83.88262Q113.2625 84.46075 113.2625 85.16387Q113.2625 86.08575 112.66875 86.71075Q112.075 87.33575 110.84062 87.50762Q111.29375 87.72637 111.52812 87.9295Q112.02812 88.38262 112.46562 89.07012L113.96562 91.41387L112.52812 91.41387L111.40312 89.63262Q110.90312 88.85137 110.575 88.44512Q110.2625 88.03887 109.99687 87.88262Q109.74687 87.71075 109.48125 87.63262Q109.29375 87.60137 108.85625 87.60137L107.52812 87.60137L107.52812 91.41387L106.3875 91.41387ZM107.52812 86.617L109.98125 86.617Q110.74687 86.617 111.18437 86.46075Q111.6375 86.28887 111.85625 85.94512Q112.09062 85.58575 112.09062 85.16387Q112.09062 84.5545 111.6375 84.16387Q111.2 83.77325 110.24687 83.77325L107.52812 83.77325L107.52812 86.617ZM119.49687 89.41387L120.59062 89.53887Q120.34062 90.492 119.6375 91.02325Q118.93437 91.5545 117.85625 91.5545Q116.49687 91.5545 115.68437 90.71075Q114.8875 89.867 114.8875 88.35137Q114.8875 86.78887 115.7 85.9295Q116.5125 85.0545 117.79375 85.0545Q119.04375 85.0545 119.825 85.89825Q120.62187 86.742 120.62187 88.28887Q120.62187 88.38262 120.62187 88.57012L115.98125 88.57012Q116.04375 89.60137 116.55937 90.14825Q117.075 90.6795 117.85625 90.6795Q118.43437 90.6795 118.84062 90.38262Q119.2625 90.07012 119.49687 89.41387ZM116.04375 87.71075L119.5125 87.71075Q119.45 86.91387 119.12187 86.52325Q118.60625 85.91387 117.80937 85.91387Q117.075 85.91387 116.575 86.39825Q116.09062 86.88262 116.04375 87.71075ZM121.825 89.5545L122.85625 89.39825Q122.95 90.02325 123.34062 90.35137Q123.74687 90.6795 124.48125 90.6795Q125.2 90.6795 125.54375 90.39825Q125.90312 90.10137 125.90312 89.69512Q125.90312 89.33575 125.59062 89.13262Q125.37187 88.992 124.5125 88.77325Q123.35625 88.47637 122.90312 88.27325Q122.46562 88.0545 122.23125 87.6795Q121.99687 87.3045 121.99687 86.83575Q121.99687 86.4295 122.18437 86.07012Q122.37187 85.71075 122.7 85.47637Q122.95 85.3045 123.37187 85.1795Q123.79375 85.0545 124.29375 85.0545Q125.0125 85.0545 125.55937 85.27325Q126.12187 85.47637 126.3875 85.83575Q126.65312 86.19512 126.74687 86.78887L125.71562 86.9295Q125.65312 86.46075 125.30937 86.19512Q124.98125 85.91387 124.35625 85.91387Q123.6375 85.91387 123.325 86.16387Q123.0125 86.39825 123.0125 86.72637Q123.0125 86.9295 123.1375 87.08575Q123.27812 87.25762 123.54375 87.367Q123.7 87.4295 124.48125 87.63262Q125.60625 87.94512 126.04375 88.13262Q126.48125 88.32012 126.73125 88.6795Q126.98125 89.03887 126.98125 89.58575Q126.98125 90.117 126.66875 90.58575Q126.37187 91.03887 125.79375 91.3045Q125.21562 91.5545 124.48125 91.5545Q123.2625 91.5545 122.62187 91.0545Q121.99687 90.53887 121.825 89.5545ZM128.24687 84.03887L128.24687 82.82012L129.30937 82.82012L129.30937 84.03887L128.24687 84.03887ZM128.24687 91.41387L128.24687 85.19512L129.30937 85.19512L129.30937 91.41387L128.24687 91.41387ZM135.27812 91.41387L135.27812 90.63262Q134.68437 91.5545 133.54375 91.5545Q132.79375 91.5545 132.16875 91.14825Q131.54375 90.72637 131.2 89.992Q130.85625 89.25762 130.85625 88.3045Q130.85625 87.38262 131.16875 86.617Q131.48125 85.85137 132.10625 85.46075Q132.73125 85.0545 133.49687 85.0545Q134.05937 85.0545 134.49687 85.28887Q134.93437 85.52325 135.21562 85.89825L135.21562 82.82012L136.2625 82.82012L136.2625 91.41387L135.27812 91.41387ZM131.95 88.3045Q131.95 89.50762 132.45 90.10137Q132.95 90.6795 133.6375 90.6795Q134.325 90.6795 134.80937 90.117Q135.29375 89.5545 135.29375 88.39825Q135.29375 87.117 134.79375 86.52325Q134.30937 85.9295 133.59062 85.9295Q132.8875 85.9295 132.41875 86.50762Q131.95 87.07012 131.95 88.3045ZM142.49687 89.41387L143.59062 89.53887Q143.34062 90.492 142.6375 91.02325Q141.93437 91.5545 140.85625 91.5545Q139.49687 91.5545 138.68437 90.71075Q137.8875 89.867 137.8875 88.35137Q137.8875 86.78887 138.7 85.9295Q139.5125 85.0545 140.79375 85.0545Q142.04375 85.0545 142.825 85.89825Q143.62187 86.742 143.62187 88.28887Q143.62187 88.38262 143.62187 88.57012L138.98125 88.57012Q139.04375 89.60137 139.55937 90.14825Q140.075 90.6795 140.85625 90.6795Q141.43437 90.6795 141.84062 90.38262Q142.2625 90.07012 142.49687 89.41387ZM139.04375 87.71075L142.5125 87.71075Q142.45 86.91387 142.12187 86.52325Q141.60625 85.91387 140.80937 85.91387Q140.075 85.91387 139.575 86.39825Q139.09062 86.88262 139.04375 87.71075ZM145.24687 91.41387L145.24687 85.19512L146.18437 85.19512L146.18437 86.07012Q146.87187 85.0545 148.16875 85.0545Q148.73125 85.0545 149.2 85.25762Q149.68437 85.46075 149.91875 85.78887Q150.15312 86.117 150.24687 86.5545Q150.29375 86.85137 150.29375 87.58575L150.29375 91.41387L149.24687 91.41387L149.24687 87.63262Q149.24687 86.97637 149.12187 86.66387Q148.99687 86.35137 148.68437 86.16387Q148.37187 85.96075 147.95 85.96075Q147.27812 85.96075 146.77812 86.39825Q146.29375 86.82012 146.29375 88.00762L146.29375 91.41387L145.24687 91.41387ZM154.54375 90.47637L154.7 91.39825Q154.24687 91.492 153.90312 91.492Q153.325 91.492 153.0125 91.32012Q152.7 91.13262 152.55937 90.83575Q152.43437 90.53887 152.43437 89.58575L152.43437 86.00762L151.66875 86.00762L151.66875 85.19512L152.43437 85.19512L152.43437 83.64825L153.48125 83.02325L153.48125 85.19512L154.54375 85.19512L154.54375 86.00762L153.48125 86.00762L153.48125 89.64825Q153.48125 90.10137 153.52812 90.22637Q153.59062 90.35137 153.71562 90.4295Q153.84062 90.50762 154.075 90.50762Q154.2625 90.50762 154.54375 90.47637ZM155.24687 84.03887L155.24687 82.82012L156.30937 82.82012L156.30937 84.03887L155.24687 84.03887ZM155.24687 91.41387L155.24687 85.19512L156.30937 85.19512L156.30937 91.41387L155.24687 91.41387ZM162.30937 90.64825Q161.71562 91.14825 161.16875 91.35137Q160.6375 91.5545 160.0125 91.5545Q158.98125 91.5545 158.43437 91.0545Q157.8875 90.5545 157.8875 89.77325Q157.8875 89.32012 158.09062 88.94512Q158.29375 88.5545 158.6375 88.33575Q158.98125 88.10137 159.40312 87.992Q159.7 87.89825 160.34062 87.82012Q161.60625 87.6795 162.21562 87.46075Q162.21562 87.242 162.21562 87.19512Q162.21562 86.53887 161.91875 86.27325Q161.5125 85.9295 160.71562 85.9295Q159.98125 85.9295 159.62187 86.19512Q159.2625 86.44512 159.09062 87.10137L158.05937 86.96075Q158.2 86.3045 158.52812 85.89825Q158.85625 85.492 159.46562 85.27325Q160.075 85.0545 160.87187 85.0545Q161.66875 85.0545 162.16875 85.242Q162.66875 85.4295 162.90312 85.71075Q163.1375 85.992 163.23125 86.4295Q163.27812 86.69512 163.27812 87.39825L163.27812 88.8045Q163.27812 90.27325 163.34062 90.66387Q163.41875 91.0545 163.62187 91.41387L162.5125 91.41387Q162.35625 91.08575 162.30937 90.64825ZM162.21562 88.28887Q161.6375 88.52325 160.49687 88.69512Q159.84062 88.78887 159.575 88.91387Q159.30937 89.02325 159.15312 89.242Q159.0125 89.46075 159.0125 89.742Q159.0125 90.16387 159.325 90.44512Q159.65312 90.72637 160.2625 90.72637Q160.87187 90.72637 161.34062 90.46075Q161.825 90.19512 162.04375 89.72637Q162.21562 89.367 162.21562 88.6795L162.21562 88.28887ZM165.21562 91.41387L165.21562 82.82012L166.27812 82.82012L166.27812 91.41387L165.21562 91.41387Z" fill-rule="nonzero"/><path fill="#47705d" d="M29.91875 108.41387L28.871876 108.41387L28.871876 101.69512Q28.48125 102.0545 27.85625 102.4295Q27.246876 102.78887 26.7625 102.96075L26.7625 101.94512Q27.6375 101.52325 28.29375 100.94512Q28.965626 100.35137 29.246876 99.78887L29.91875 99.78887L29.91875 108.41387ZM38.496876 107.39825L38.496876 108.41387L32.809376 108.41387Q32.809376 108.03887 32.934376 107.6795Q33.153126 107.10137 33.621876 106.53887Q34.10625 105.97637 35.0125 105.242Q36.41875 104.08575 36.903126 103.41387Q37.403126 102.742 37.403126 102.14825Q37.403126 101.52325 36.95 101.10137Q36.496876 100.66387 35.778126 100.66387Q35.0125 100.66387 34.559376 101.117Q34.10625 101.57012 34.090626 102.38262L33.0125 102.27325Q33.121876 101.0545 33.840626 100.4295Q34.575 99.78887 35.809376 99.78887Q37.04375 99.78887 37.7625 100.47637Q38.48125 101.16387 38.48125 102.1795Q38.48125 102.69512 38.2625 103.19512Q38.059376 103.6795 37.559376 104.242Q37.075 104.78887 35.95 105.742Q34.996876 106.53887 34.715626 106.83575Q34.45 107.117 34.278126 107.39825L38.496876 107.39825ZM40.54375 108.41387L40.54375 107.21075L41.746876 107.21075L41.746876 108.41387L40.54375 108.41387ZM46.91875 108.41387L45.871876 108.41387L45.871876 101.69512Q45.48125 102.0545 44.85625 102.4295Q44.246876 102.78887 43.7625 102.96075L43.7625 101.94512Q44.6375 101.52325 45.29375 100.94512Q45.965626 100.35137 46.246876 99.78887L46.91875 99.78887L46.91875 108.41387ZM50.153126 101.88262Q50.153126 100.96075 50.60625 100.32012Q51.075 99.6795 51.95 99.6795Q52.7625 99.6795 53.29375 100.25762Q53.825 100.83575 53.825 101.94512Q53.825 103.03887 53.278126 103.63262Q52.746876 104.21075 51.965626 104.21075Q51.184376 104.21075 50.66875 103.63262Q50.153126 103.0545 50.153126 101.88262ZM51.98125 100.39825Q51.590626 100.39825 51.325 100.742Q51.075 101.08575 51.075 101.992Q51.075 102.82012 51.325 103.16387Q51.590626 103.492 51.98125 103.492Q52.3875 103.492 52.6375 103.14825Q52.903126 102.8045 52.903126 101.91387Q52.903126 101.07012 52.6375 100.742Q52.371876 100.39825 51.98125 100.39825ZM51.98125 108.72637L56.684376 99.6795L57.54375 99.6795L52.85625 108.72637L51.98125 108.72637ZM55.7 106.39825Q55.7 105.47637 56.153126 104.83575Q56.621876 104.19512 57.5125 104.19512Q58.325 104.19512 58.85625 104.77325Q59.3875 105.33575 59.3875 106.46075Q59.3875 107.5545 58.840626 108.14825Q58.309376 108.72637 57.5125 108.72637Q56.746876 108.72637 56.215626 108.14825Q55.7 107.57012 55.7 106.39825ZM57.54375 104.91387Q57.1375 104.91387 56.871876 105.25762Q56.621876 105.60137 56.621876 106.50762Q56.621876 107.32012 56.8875 107.66387Q57.153126 108.00762 57.54375 108.00762Q57.934376 108.00762 58.2 107.66387Q58.465626 107.32012 58.465626 106.41387Q58.465626 105.58575 58.2 105.25762Q57.934376 104.91387 57.54375 104.91387Z" fill-rule="nonzero"/><path stroke="#294036" stroke-width="1.0" stroke-linecap="butt" d="M25.45 95.91387L175.95 95.91387L330.12717 95.91387" fill-rule="nonzero"/><path fill="#47705d" d="M332.12717 95.91387C332.12717 94.8093 331.23175 93.91387 330.12717 93.91387C329.0226 93.91387 328.12717 94.8093 328.12717 95.91387C328.12717 97.01844 329.0226 97.91387 330.12717 97.91387C331.23175 97.91387 332.12717 97.01844 332.12717 95.91387" fill-rule="nonzero"/><path fill="#1a1a1a" d="M26.575 215.93857L26.575 207.34482L27.7 207.34482L27.7 215.93857L26.575 215.93857ZM29.246876 215.93857L29.246876 209.71982L30.184376 209.71982L30.184376 210.59482Q30.871876 209.5792 32.16875 209.5792Q32.73125 209.5792 33.2 209.78232Q33.684376 209.98544 33.91875 210.31357Q34.153126 210.6417 34.246876 211.0792Q34.29375 211.37607 34.29375 212.11044L34.29375 215.93857L33.246876 215.93857L33.246876 212.15732Q33.246876 211.50107 33.121876 211.18857Q32.996876 210.87607 32.684376 210.68857Q32.371876 210.48544 31.95 210.48544Q31.278126 210.48544 30.778126 210.92294Q30.29375 211.34482 30.29375 212.53232L30.29375 215.93857L29.246876 215.93857ZM40.278126 215.93857L40.278126 215.15732Q39.684376 216.0792 38.54375 216.0792Q37.79375 216.0792 37.16875 215.67294Q36.54375 215.25107 36.2 214.5167Q35.85625 213.78232 35.85625 212.8292Q35.85625 211.90732 36.16875 211.1417Q36.48125 210.37607 37.10625 209.98544Q37.73125 209.5792 38.496876 209.5792Q39.059376 209.5792 39.496876 209.81357Q39.934376 210.04794 40.215626 210.42294L40.215626 207.34482L41.2625 207.34482L41.2625 215.93857L40.278126 215.93857ZM36.95 212.8292Q36.95 214.03232 37.45 214.62607Q37.95 215.2042 38.6375 215.2042Q39.325 215.2042 39.809376 214.6417Q40.29375 214.0792 40.29375 212.92294Q40.29375 211.6417 39.79375 211.04794Q39.309376 210.4542 38.590626 210.4542Q37.8875 210.4542 37.41875 211.03232Q36.95 211.59482 36.95 212.8292ZM47.325 215.93857L47.325 215.0167Q46.590626 216.0792 45.340626 216.0792Q44.79375 216.0792 44.309376 215.87607Q43.840626 215.65732 43.60625 215.34482Q43.371876 215.0167 43.278126 214.54794Q43.215626 214.25107 43.215626 213.56357L43.215626 209.71982L44.278126 209.71982L44.278126 213.17294Q44.278126 213.98544 44.340626 214.28232Q44.434376 214.68857 44.746876 214.93857Q45.075 215.17294 45.559376 215.17294Q46.028126 215.17294 46.434376 214.93857Q46.85625 214.68857 47.028126 214.2667Q47.215626 213.84482 47.215626 213.04794L47.215626 209.71982L48.2625 209.71982L48.2625 215.93857L47.325 215.93857ZM49.825 214.0792L50.85625 213.92294Q50.95 214.54794 51.340626 214.87607Q51.746876 215.2042 52.48125 215.2042Q53.2 215.2042 53.54375 214.92294Q53.903126 214.62607 53.903126 214.21982Q53.903126 213.86044 53.590626 213.65732Q53.371876 213.5167 52.5125 213.29794Q51.35625 213.00107 50.903126 212.79794Q50.465626 212.5792 50.23125 212.2042Q49.996876 211.8292 49.996876 211.36044Q49.996876 210.9542 50.184376 210.59482Q50.371876 210.23544 50.7 210.00107Q50.95 209.8292 51.371876 209.7042Q51.79375 209.5792 52.29375 209.5792Q53.0125 209.5792 53.559376 209.79794Q54.121876 210.00107 54.3875 210.36044Q54.653126 210.71982 54.746876 211.31357L53.715626 211.4542Q53.653126 210.98544 53.309376 210.71982Q52.98125 210.43857 52.35625 210.43857Q51.6375 210.43857 51.325 210.68857Q51.0125 210.92294 51.0125 211.25107Q51.0125 211.4542 51.1375 211.61044Q51.278126 211.78232 51.54375 211.8917Q51.7 211.9542 52.48125 212.15732Q53.60625 212.46982 54.04375 212.65732Q54.48125 212.84482 54.73125 213.2042Q54.98125 213.56357 54.98125 214.11044Q54.98125 214.6417 54.66875 215.11044Q54.371876 215.56357 53.79375 215.8292Q53.215626 216.0792 52.48125 216.0792Q51.2625 216.0792 50.621876 215.5792Q49.996876 215.06357 49.825 214.0792ZM58.54375 215.00107L58.7 215.92294Q58.246876 216.0167 57.903126 216.0167Q57.325 216.0167 57.0125 215.84482Q56.7 215.65732 56.559376 215.36044Q56.434376 215.06357 56.434376 214.11044L56.434376 210.53232L55.66875 210.53232L55.66875 209.71982L56.434376 209.71982L56.434376 208.17294L57.48125 207.54794L57.48125 209.71982L58.54375 209.71982L58.54375 210.53232L57.48125 210.53232L57.48125 214.17294Q57.48125 214.62607 57.528126 214.75107Q57.590626 214.87607 57.715626 214.9542Q57.840626 215.03232 58.075 215.03232Q58.2625 215.03232 58.54375 215.00107ZM59.23125 215.93857L59.23125 209.71982L60.184376 209.71982L60.184376 210.65732Q60.54375 210.00107 60.840626 209.79794Q61.153126 209.5792 61.528126 209.5792Q62.059376 209.5792 62.60625 209.90732L62.246876 210.8917Q61.85625 210.65732 61.48125 210.65732Q61.121876 210.65732 60.840626 210.87607Q60.575 211.0792 60.465626 211.4542Q60.278126 212.0167 60.278126 212.67294L60.278126 215.93857L59.23125 215.93857ZM63.2 218.3292L63.075 217.34482Q63.41875 217.43857 63.684376 217.43857Q64.02812 217.43857 64.23125 217.31357Q64.45 217.2042 64.59062 217.00107Q64.68437 216.8292 64.91875 216.2042Q64.93437 216.12607 65.0125 215.9542L62.6375 209.71982L63.778126 209.71982L65.075 213.31357Q65.325 214.00107 65.52812 214.7667Q65.71562 214.03232 65.96562 213.34482L67.29375 209.71982L68.34062 209.71982L65.98125 216.04794Q65.59062 217.06357 65.3875 217.4542Q65.10625 217.98544 64.73125 218.21982Q64.37187 218.46982 63.871876 218.46982Q63.575 218.46982 63.2 218.3292Z" fill-rule="nonzero"/><path fill="#47705d" d="M31.496876 231.92294L31.496876 232.93857L25.809376 232.93857Q25.809376 232.56357 25.934376 232.2042Q26.153126 231.62607 26.621876 231.06357Q27.10625 230.50107 28.0125 229.7667Q29.41875 228.61044 29.903126 227.93857Q30.403126 227.2667 30.403126 226.67294Q30.403126 226.04794 29.95 225.62607Q29.496876 225.18857 28.778126 225.18857Q28.0125 225.18857 27.559376 225.6417Q27.10625 226.09482 27.090626 226.90732L26.0125 226.79794Q26.121876 225.5792 26.840626 224.9542Q27.575 224.31357 28.809376 224.31357Q30.04375 224.31357 30.7625 225.00107Q31.48125 225.68857 31.48125 226.7042Q31.48125 227.21982 31.2625 227.71982Q31.059376 228.2042 30.559376 228.7667Q30.075 229.31357 28.95 230.2667Q27.996876 231.06357 27.715626 231.36044Q27.45 231.6417 27.278126 231.92294L31.496876 231.92294ZM38.496876 231.92294L38.496876 232.93857L32.809376 232.93857Q32.809376 232.56357 32.934376 232.2042Q33.153126 231.62607 33.621876 231.06357Q34.10625 230.50107 35.0125 229.7667Q36.41875 228.61044 36.903126 227.93857Q37.403126 227.2667 37.403126 226.67294Q37.403126 226.04794 36.95 225.62607Q36.496876 225.18857 35.778126 225.18857Q35.0125 225.18857 34.559376 225.6417Q34.10625 226.09482 34.090626 226.90732L33.0125 226.79794Q33.121876 225.5792 33.840626 224.9542Q34.575 224.31357 35.809376 224.31357Q37.04375 224.31357 37.7625 225.00107Q38.48125 225.68857 38.48125 226.7042Q38.48125 227.21982 38.2625 227.71982Q38.059376 228.2042 37.559376 228.7667Q37.075 229.31357 35.95 230.2667Q34.996876 231.06357 34.715626 231.36044Q34.45 231.6417 34.278126 231.92294L38.496876 231.92294ZM40.54375 232.93857L40.54375 231.73544L41.746876 231.73544L41.746876 232.93857L40.54375 232.93857ZM48.496876 231.92294L48.496876 232.93857L42.809376 232.93857Q42.809376 232.56357 42.934376 232.2042Q43.153126 231.62607 43.621876 231.06357Q44.10625 230.50107 45.0125 229.7667Q46.41875 228.61044 46.903126 227.93857Q47.403126 227.2667 47.403126 226.67294Q47.403126 226.04794 46.95 225.62607Q46.496876 225.18857 45.778126 225.18857Q45.0125 225.18857 44.559376 225.6417Q44.10625 226.09482 44.090626 226.90732L43.0125 226.79794Q43.121876 225.5792 43.840626 224.9542Q44.575 224.31357 45.809376 224.31357Q47.04375 224.31357 47.7625 225.00107Q48.48125 225.68857 48.48125 226.7042Q48.48125 227.21982 48.2625 227.71982Q48.059376 228.2042 47.559376 228.7667Q47.075 229.31357 45.95 230.2667Q44.996876 231.06357 44.715626 231.36044Q44.45 231.6417 44.278126 231.92294L48.496876 231.92294ZM50.153126 226.40732Q50.153126 225.48544 50.60625 224.84482Q51.075 224.2042 51.95 224.2042Q52.7625 224.2042 53.29375 224.78232Q53.825 225.36044 53.825 226.46982Q53.825 227.56357 53.278126 228.15732Q52.746876 228.73544 51.965626 228.73544Q51.184376 228.73544 50.66875 228.15732Q50.153126 227.5792 50.153126 226.40732ZM51.98125 224.92294Q51.590626 224.92294 51.325 225.2667Q51.075 225.61044 51.075 226.5167Q51.075 227.34482 51.325 227.68857Q51.590626 228.0167 51.98125 228.0167Q52.3875 228.0167 52.6375 227.67294Q52.903126 227.3292 52.903126 226.43857Q52.903126 225.59482 52.6375 225.2667Q52.371876 224.92294 51.98125 224.92294ZM51.98125 233.25107L56.684376 224.2042L57.54375 224.2042L52.85625 233.25107L51.98125 233.25107ZM55.7 230.92294Q55.7 230.00107 56.153126 229.36044Q56.621876 228.71982 57.5125 228.71982Q58.325 228.71982 58.85625 229.29794Q59.3875 229.86044 59.3875 230.98544Q59.3875 232.0792 58.840626 232.67294Q58.309376 233.25107 57.5125 233.25107Q56.746876 233.25107 56.215626 232.67294Q55.7 232.09482 55.7 230.92294ZM57.54375 229.43857Q57.1375 229.43857 56.871876 229.78232Q56.621876 230.12607 56.621876 231.03232Q56.621876 231.84482 56.8875 232.18857Q57.153126 232.53232 57.54375 232.53232Q57.934376 232.53232 58.2 232.18857Q58.465626 231.84482 58.465626 230.93857Q58.465626 230.11044 58.2 229.78232Q57.934376 229.43857 57.54375 229.43857Z" fill-rule="nonzero"/><path stroke="#294036" stroke-width="1.0" stroke-linecap="butt" d="M25.45 220.43857L175.95 220.43857L194.74324 220.43857" fill-rule="nonzero"/><path fill="#47705d" d="M196.74324 220.43857C196.74324 219.334 195.84781 218.43857 194.74324 218.43857C193.63867 218.43857 192.74324 219.334 192.74324 220.43857C192.74324 221.54314 193.63867 222.43857 194.74324 222.43857C195.84781 222.43857 196.74324 221.54314 196.74324 220.43857" fill-rule="nonzero"/><path fill="#1a1a1a" d="M26.403126 383.91406L26.403126 375.3203L32.60625 375.3203L32.60625 376.33594L27.54375 376.33594L27.54375 378.96094L32.29375 378.96094L32.29375 379.97656L27.54375 379.97656L27.54375 382.89844L32.809376 382.89844L32.809376 383.91406L26.403126 383.91406ZM34.215626 383.91406L34.215626 375.3203L35.278126 375.3203L35.278126 383.91406L34.215626 383.91406ZM41.496876 381.91406L42.590626 382.03906Q42.340626 382.9922 41.6375 383.52344Q40.934376 384.0547 39.85625 384.0547Q38.496876 384.0547 37.684376 383.21094Q36.8875 382.3672 36.8875 380.85156Q36.8875 379.28906 37.7 378.4297Q38.5125 377.5547 39.79375 377.5547Q41.04375 377.5547 41.825 378.39844Q42.621876 379.2422 42.621876 380.78906Q42.621876 380.8828 42.621876 381.0703L37.98125 381.0703Q38.04375 382.10156 38.559376 382.64844Q39.075 383.1797 39.85625 383.1797Q40.434376 383.1797 40.840626 382.8828Q41.2625 382.5703 41.496876 381.91406ZM38.04375 380.21094L41.5125 380.21094Q41.45 379.41406 41.121876 379.02344Q40.60625 378.41406 39.809376 378.41406Q39.075 378.41406 38.575 378.89844Q38.090626 379.3828 38.04375 380.21094ZM48.309376 381.6328L49.340626 381.77344Q49.16875 382.83594 48.465626 383.4453Q47.7625 384.0547 46.746876 384.0547Q45.465626 384.0547 44.684376 383.22656Q43.91875 382.3828 43.91875 380.8203Q43.91875 379.8203 44.246876 379.0703Q44.590626 378.3047 45.2625 377.9297Q45.95 377.5547 46.7625 377.5547Q47.7625 377.5547 48.403126 378.0703Q49.059376 378.5703 49.246876 379.52344L48.215626 379.6797Q48.075 379.0547 47.7 378.7422Q47.325 378.41406 46.79375 378.41406Q45.996876 378.41406 45.496876 378.9922Q44.996876 379.5547 44.996876 380.78906Q44.996876 382.0547 45.48125 382.6172Q45.965626 383.1797 46.73125 383.1797Q47.35625 383.1797 47.7625 382.8047Q48.184376 382.4297 48.309376 381.6328ZM52.54375 382.97656L52.7 383.89844Q52.246876 383.9922 51.903126 383.9922Q51.325 383.9922 51.0125 383.8203Q50.7 383.6328 50.559376 383.33594Q50.434376 383.03906 50.434376 382.08594L50.434376 378.5078L49.66875 378.5078L49.66875 377.6953L50.434376 377.6953L50.434376 376.14844L51.48125 375.52344L51.48125 377.6953L52.54375 377.6953L52.54375 378.5078L51.48125 378.5078L51.48125 382.14844Q51.48125 382.60156 51.528126 382.72656Q51.590626 382.85156 51.715626 382.9297Q51.840626 383.0078 52.075 383.0078Q52.2625 383.0078 52.54375 382.97656ZM53.23125 383.91406L53.23125 377.6953L54.184376 377.6953L54.184376 378.6328Q54.54375 377.97656 54.840626 377.77344Q55.153126 377.5547 55.528126 377.5547Q56.059376 377.5547 56.60625 377.8828L56.246876 378.8672Q55.85625 378.6328 55.48125 378.6328Q55.121876 378.6328 54.840626 378.85156Q54.575 379.0547 54.465626 379.4297Q54.278126 379.9922 54.278126 380.64844L54.278126 383.91406L53.23125 383.91406ZM57.246876 376.53906L57.246876 375.3203L58.309376 375.3203L58.309376 376.53906L57.246876 376.53906ZM57.246876 383.91406L57.246876 377.6953L58.309376 377.6953L58.309376 383.91406L57.246876 383.91406ZM64.30937 381.6328L65.34062 381.77344Q65.16875 382.83594 64.46562 383.4453Q63.7625 384.0547 62.746876 384.0547Q61.465626 384.0547 60.684376 383.22656Q59.91875 382.3828 59.91875 380.8203Q59.91875 379.8203 60.246876 379.0703Q60.590626 378.3047 61.2625 377.9297Q61.95 377.5547 62.7625 377.5547Q63.7625 377.5547 64.40312 378.0703Q65.05937 378.5703 65.24687 379.52344L64.21562 379.6797Q64.075 379.0547 63.7 378.7422Q63.325 378.41406 62.79375 378.41406Q61.996876 378.41406 61.496876 378.9922Q60.996876 379.5547 60.996876 380.78906Q60.996876 382.0547 61.48125 382.6172Q61.965626 383.1797 62.73125 383.1797Q63.35625 383.1797 63.7625 382.8047Q64.18437 382.4297 64.30937 381.6328ZM66.24687 376.53906L66.24687 375.3203L67.30937 375.3203L67.30937 376.53906L66.24687 376.53906ZM66.24687 383.91406L66.24687 377.6953L67.30937 377.6953L67.30937 383.91406L66.24687 383.91406ZM71.54375 382.97656L71.7 383.89844Q71.24687 383.9922 70.90312 383.9922Q70.325 383.9922 70.0125 383.8203Q69.7 383.6328 69.55937 383.33594Q69.43437 383.03906 69.43437 382.08594L69.43437 378.5078L68.66875 378.5078L68.66875 377.6953L69.43437 377.6953L69.43437 376.14844L70.48125 375.52344L70.48125 377.6953L71.54375 377.6953L71.54375 378.5078L70.48125 378.5078L70.48125 382.14844Q70.48125 382.60156 70.52812 382.72656Q70.59062 382.85156 70.71562 382.9297Q70.84062 383.0078 71.075 383.0078Q71.2625 383.0078 71.54375 382.97656ZM72.2 386.3047L72.075 385.3203Q72.41875 385.41406 72.68437 385.41406Q73.02812 385.41406 73.23125 385.28906Q73.45 385.1797 73.59062 384.97656Q73.68437 384.8047 73.91875 384.1797Q73.93437 384.10156 74.0125 383.9297L71.6375 377.6953L72.77812 377.6953L74.075 381.28906Q74.325 381.97656 74.52812 382.7422Q74.71562 382.0078 74.96562 381.3203L76.29375 377.6953L77.34062 377.6953L74.98125 384.02344Q74.59062 385.03906 74.3875 385.4297Q74.10625 385.96094 73.73125 386.1953Q73.37187 386.4453 72.87187 386.4453Q72.575 386.4453 72.2 386.3047ZM81.37187 383.91406L81.37187 375.3203L84.62187 375.3203Q85.46562 375.3203 85.91875 375.39844Q86.55937 375.5078 86.98125 375.8047Q87.41875 376.10156 87.66875 376.6328Q87.93437 377.16406 87.93437 377.8047Q87.93437 378.89844 87.23125 379.66406Q86.54375 380.41406 84.71562 380.41406L82.5125 380.41406L82.5125 383.91406L81.37187 383.91406ZM82.5125 379.41406L84.73125 379.41406Q85.84062 379.41406 86.29375 379.0078Q86.7625 378.58594 86.7625 377.83594Q86.7625 377.3047 86.48125 376.9297Q86.21562 376.53906 85.77812 376.41406Q85.48125 376.33594 84.71562 376.33594L82.5125 376.33594L82.5125 379.41406ZM89.23125 383.91406L89.23125 377.6953L90.18437 377.6953L90.18437 378.6328Q90.54375 377.97656 90.84062 377.77344Q91.15312 377.5547 91.52812 377.5547Q92.05937 377.5547 92.60625 377.8828L92.24687 378.8672Q91.85625 378.6328 91.48125 378.6328Q91.12187 378.6328 90.84062 378.85156Q90.575 379.0547 90.46562 379.4297Q90.27812 379.9922 90.27812 380.64844L90.27812 383.91406L89.23125 383.91406ZM92.85625 380.8047Q92.85625 379.0703 93.80937 378.2422Q94.60625 377.5547 95.7625 377.5547Q97.04375 377.5547 97.85625 378.39844Q98.68437 379.22656 98.68437 380.71094Q98.68437 381.91406 98.325 382.60156Q97.96562 383.28906 97.2625 383.6797Q96.575 384.0547 95.7625 384.0547Q94.46562 384.0547 93.65312 383.22656Q92.85625 382.3828 92.85625 380.8047ZM93.93437 380.8047Q93.93437 381.9922 94.45 382.58594Q94.98125 383.1797 95.7625 383.1797Q96.55937 383.1797 97.075 382.58594Q97.59062 381.9922 97.59062 380.77344Q97.59062 379.6172 97.05937 379.02344Q96.54375 378.4297 95.7625 378.4297Q94.98125 378.4297 94.45 379.02344Q93.93437 379.60156 93.93437 380.8047ZM104.27812 383.91406L104.27812 383.1328Q103.68437 384.0547 102.54375 384.0547Q101.79375 384.0547 101.16875 383.64844Q100.54375 383.22656 100.2 382.4922Q99.85625 381.7578 99.85625 380.8047Q99.85625 379.8828 100.16875 379.1172Q100.48125 378.35156 101.10625 377.96094Q101.73125 377.5547 102.49687 377.5547Q103.05937 377.5547 103.49687 377.78906Q103.93437 378.02344 104.21562 378.39844L104.21562 375.3203L105.2625 375.3203L105.2625 383.91406L104.27812 383.91406ZM100.95 380.8047Q100.95 382.0078 101.45 382.60156Q101.95 383.1797 102.6375 383.1797Q103.325 383.1797 103.80937 382.6172Q104.29375 382.0547 104.29375 380.89844Q104.29375 379.6172 103.79375 379.02344Q103.30937 378.4297 102.59062 378.4297Q101.8875 378.4297 101.41875 379.0078Q100.95 379.5703 100.95 380.8047ZM111.325 383.91406L111.325 382.9922Q110.59062 384.0547 109.34062 384.0547Q108.79375 384.0547 108.30937 383.85156Q107.84062 383.6328 107.60625 383.3203Q107.37187 382.9922 107.27812 382.52344Q107.21562 382.22656 107.21562 381.53906L107.21562 377.6953L108.27812 377.6953L108.27812 381.14844Q108.27812 381.96094 108.34062 382.2578Q108.43437 382.66406 108.74687 382.91406Q109.075 383.14844 109.55937 383.14844Q110.02812 383.14844 110.43437 382.91406Q110.85625 382.66406 111.02812 382.2422Q111.21562 381.8203 111.21562 381.02344L111.21562 377.6953L112.2625 377.6953L112.2625 383.91406L111.325 383.91406ZM118.30937 381.6328L119.34062 381.77344Q119.16875 382.83594 118.46562 383.4453Q117.7625 384.0547 116.74687 384.0547Q115.46562 384.0547 114.68437 383.22656Q113.91875 382.3828 113.91875 380.8203Q113.91875 379.8203 114.24687 379.0703Q114.59062 378.3047 115.2625 377.9297Q115.95 377.5547 116.7625 377.5547Q117.7625 377.5547 118.40312 378.0703Q119.05937 378.5703 119.24687 379.52344L118.21562 379.6797Q118.075 379.0547 117.7 378.7422Q117.325 378.41406 116.79375 378.41406Q115.99687 378.41406 115.49687 378.9922Q114.99687 379.5547 114.99687 380.78906Q114.99687 382.0547 115.48125 382.6172Q115.96562 383.1797 116.73125 383.1797Q117.35625 383.1797 117.7625 382.8047Q118.18437 382.4297 118.30937 381.6328ZM122.54375 382.97656L122.7 383.89844Q122.24687 383.9922 121.90312 383.9922Q121.325 383.9922 121.0125 383.8203Q120.7 383.6328 120.55937 383.33594Q120.43437 383.03906 120.43437 382.08594L120.43437 378.5078L119.66875 378.5078L119.66875 377.6953L120.43437 377.6953L120.43437 376.14844L121.48125 375.52344L121.48125 377.6953L122.54375 377.6953L122.54375 378.5078L121.48125 378.5078L121.48125 382.14844Q121.48125 382.60156 121.52812 382.72656Q121.59062 382.85156 121.71562 382.9297Q121.84062 383.0078 122.075 383.0078Q122.2625 383.0078 122.54375 382.97656ZM123.24687 376.53906L123.24687 375.3203L124.30937 375.3203L124.30937 376.53906L123.24687 376.53906ZM123.24687 383.91406L123.24687 377.6953L124.30937 377.6953L124.30937 383.91406L123.24687 383.91406ZM125.85625 380.8047Q125.85625 379.0703 126.80937 378.2422Q127.60625 377.5547 128.7625 377.5547Q130.04375 377.5547 130.85625 378.39844Q131.68437 379.22656 131.68437 380.71094Q131.68437 381.91406 131.325 382.60156Q130.96562 383.28906 130.2625 383.6797Q129.575 384.0547 128.7625 384.0547Q127.46562 384.0547 126.65312 383.22656Q125.85625 382.3828 125.85625 380.8047ZM126.93437 380.8047Q126.93437 381.9922 127.45 382.58594Q127.98125 383.1797 128.7625 383.1797Q129.55937 383.1797 130.075 382.58594Q130.59062 381.9922 130.59062 380.77344Q130.59062 379.6172 130.05937 379.02344Q129.54375 378.4297 128.7625 378.4297Q127.98125 378.4297 127.45 379.02344Q126.93437 379.60156 126.93437 380.8047ZM133.24687 383.91406L133.24687 377.6953L134.18437 377.6953L134.18437 378.5703Q134.87187 377.5547 136.16875 377.5547Q136.73125 377.5547 137.2 377.7578Q137.68437 377.96094 137.91875 378.28906Q138.15312 378.6172 138.24687 379.0547Q138.29375 379.35156 138.29375 380.08594L138.29375 383.91406L137.24687 383.91406L137.24687 380.1328Q137.24687 379.47656 137.12187 379.16406Q136.99687 378.85156 136.68437 378.66406Q136.37187 378.46094 135.95 378.46094Q135.27812 378.46094 134.77812 378.89844Q134.29375 379.3203 134.29375 380.5078L134.29375 383.91406L133.24687 383.91406Z" fill-rule="nonzero"/><path fill="#47705d" d="M31.496876 399.89844L31.496876 400.91406L25.809376 400.91406Q25.809376 400.53906 25.934376 400.1797Q26.153126 399.60156 26.621876 399.03906Q27.10625 398.47656 28.0125 397.7422Q29.41875 396.58594 29.903126 395.91406Q30.403126 395.2422 30.403126 394.64844Q30.403126 394.02344 29.95 393.60156Q29.496876 393.16406 28.778126 393.16406Q28.0125 393.16406 27.559376 393.6172Q27.10625 394.0703 27.090626 394.8828L26.0125 394.77344Q26.121876 393.5547 26.840626 392.9297Q27.575 392.28906 28.809376 392.28906Q30.04375 392.28906 30.7625 392.97656Q31.48125 393.66406 31.48125 394.6797Q31.48125 395.1953 31.2625 395.6953Q31.059376 396.1797 30.559376 396.7422Q30.075 397.28906 28.95 398.2422Q27.996876 399.03906 27.715626 399.33594Q27.45 399.6172 27.278126 399.89844L31.496876 399.89844ZM33.0125 393.4453L33.0125 392.4297L38.575 392.4297L38.575 393.2578Q37.7625 394.1328 36.95 395.58594Q36.153126 397.02344 35.715626 398.5547Q35.3875 399.6328 35.309376 400.91406L34.215626 400.91406Q34.23125 399.89844 34.60625 398.46094Q34.996876 397.02344 35.7 395.6953Q36.41875 394.3672 37.23125 393.4453L33.0125 393.4453ZM40.54375 400.91406L40.54375 399.71094L41.746876 399.71094L41.746876 400.91406L40.54375 400.91406ZM42.95 398.64844L44.0125 398.5078Q44.184376 399.39844 44.621876 399.8047Q45.059376 400.1953 45.684376 400.1953Q46.434376 400.1953 46.95 399.6797Q47.465626 399.16406 47.465626 398.39844Q47.465626 397.6797 46.98125 397.21094Q46.5125 396.72656 45.778126 396.72656Q45.48125 396.72656 45.028126 396.85156L45.153126 395.91406Q45.2625 395.9297 45.325 395.9297Q45.996876 395.9297 46.528126 395.58594Q47.075 395.22656 47.075 394.4922Q47.075 393.91406 46.684376 393.53906Q46.29375 393.14844 45.66875 393.14844Q45.059376 393.14844 44.6375 393.53906Q44.23125 393.9297 44.121876 394.6953L43.059376 394.5078Q43.246876 393.46094 43.934376 392.8828Q44.621876 392.28906 45.6375 392.28906Q46.340626 392.28906 46.934376 392.60156Q47.528126 392.89844 47.840626 393.41406Q48.153126 393.9297 48.153126 394.52344Q48.153126 395.0703 47.85625 395.53906Q47.559376 395.9922 46.98125 396.2578Q47.73125 396.4297 48.153126 396.9922Q48.575 397.53906 48.575 398.3828Q48.575 399.5078 47.746876 400.28906Q46.934376 401.0703 45.684376 401.0703Q44.559376 401.0703 43.809376 400.39844Q43.059376 399.71094 42.95 398.64844ZM50.153126 394.3828Q50.153126 393.46094 50.60625 392.8203Q51.075 392.1797 51.95 392.1797Q52.7625 392.1797 53.29375 392.7578Q53.825 393.33594 53.825 394.4453Q53.825 395.53906 53.278126 396.1328Q52.746876 396.71094 51.965626 396.71094Q51.184376 396.71094 50.66875 396.1328Q50.153126 395.5547 50.153126 394.3828ZM51.98125 392.89844Q51.590626 392.89844 51.325 393.2422Q51.075 393.58594 51.075 394.4922Q51.075 395.3203 51.325 395.66406Q51.590626 395.9922 51.98125 395.9922Q52.3875 395.9922 52.6375 395.64844Q52.903126 395.3047 52.903126 394.41406Q52.903126 393.5703 52.6375 393.2422Q52.371876 392.89844 51.98125 392.89844ZM51.98125 401.22656L56.684376 392.1797L57.54375 392.1797L52.85625 401.22656L51.98125 401.22656ZM55.7 398.89844Q55.7 397.97656 56.153126 397.33594Q56.621876 396.6953 57.5125 396.6953Q58.325 396.6953 58.85625 397.27344Q59.3875 397.83594 59.3875 398.96094Q59.3875 400.0547 58.840626 400.64844Q58.309376 401.22656 57.5125 401.22656Q56.746876 401.22656 56.215626 400.64844Q55.7 400.0703 55.7 398.89844ZM57.54375 397.41406Q57.1375 397.41406 56.871876 397.7578Q56.621876 398.10156 56.621876 399.0078Q56.621876 399.8203 56.8875 400.16406Q57.153126 400.5078 57.54375 400.5078Q57.934376 400.5078 58.2 400.16406Q58.465626 399.8203 58.465626 398.91406Q58.465626 398.08594 58.2 397.7578Q57.934376 397.41406 57.54375 397.41406Z" fill-rule="nonzero"/><path stroke="#294036" stroke-width="1.0" stroke-linecap="butt" d="M25.45 388.41406L175.95 388.41406L383.4538 388.41406" fill-rule="nonzero"/><path fill="#47705d" d="M385.4538 388.41406C385.4538 387.3095 384.55838 386.41406 383.4538 386.41406C382.34924 386.41406 381.4538 387.3095 381.4538 388.41406C381.4538 389.51865 382.34924 390.41406 383.4538 390.41406C384.55838 390.41406 385.4538 389.51865 385.4538 388.41406" fill-rule="nonzero"/><path fill="#1a1a1a" d="M737.53436 88.10808L740.83124 79.51433L742.05 79.51433L745.5656 88.10808L744.28436 88.10808L743.26874 85.4987L739.6906 85.4987L738.7375 88.10808L737.53436 88.10808ZM740.01874 84.57683L742.925 84.57683L742.03436 82.20183Q741.6125 81.1237 741.425 80.42058Q741.2531 81.2487 740.95624 82.0612L740.01874 84.57683ZM746.14374 88.6237L747.175 88.77995Q747.2375 89.2487 747.53436 89.46745Q747.925 89.76433 748.59686 89.76433Q749.33124 89.76433 749.72186 89.46745Q750.1281 89.17058 750.26874 88.65495Q750.3625 88.32683 750.34686 87.29558Q749.65936 88.10808 748.6281 88.10808Q747.34686 88.10808 746.64374 87.1862Q745.9406 86.2487 745.9406 84.96745Q745.9406 84.07683 746.2531 83.32683Q746.58124 82.5612 747.1906 82.15495Q747.8 81.7487 748.6281 81.7487Q749.7375 81.7487 750.45624 82.63933L750.45624 81.88933L751.425 81.88933L751.425 87.26433Q751.425 88.71745 751.1281 89.32683Q750.83124 89.9362 750.1906 90.27995Q749.55 90.63933 748.6125 90.63933Q747.5031 90.63933 746.8156 90.13933Q746.1281 89.63933 746.14374 88.6237ZM747.01874 84.88933Q747.01874 86.10808 747.5031 86.67058Q747.9875 87.23308 748.72186 87.23308Q749.45624 87.23308 749.9406 86.67058Q750.4406 86.10808 750.4406 84.92058Q750.4406 83.77995 749.925 83.20183Q749.425 82.6237 748.70624 82.6237Q748.0031 82.6237 747.5031 83.20183Q747.01874 83.76433 747.01874 84.88933ZM753.33124 88.10808L753.33124 81.88933L754.28436 81.88933L754.28436 82.82683Q754.64374 82.17058 754.9406 81.96745Q755.2531 81.7487 755.6281 81.7487Q756.15936 81.7487 756.70624 82.07683L756.34686 83.0612Q755.95624 82.82683 755.58124 82.82683Q755.22186 82.82683 754.9406 83.04558Q754.675 83.2487 754.5656 83.6237Q754.3781 84.1862 754.3781 84.84245L754.3781 88.10808L753.33124 88.10808ZM757.34686 80.73308L757.34686 79.51433L758.40936 79.51433L758.40936 80.73308L757.34686 80.73308ZM757.34686 88.10808L757.34686 81.88933L758.40936 81.88933L758.40936 88.10808L757.34686 88.10808ZM764.40936 85.82683L765.4406 85.96745Q765.26874 87.02995 764.5656 87.63933Q763.8625 88.2487 762.84686 88.2487Q761.5656 88.2487 760.78436 87.42058Q760.01874 86.57683 760.01874 85.01433Q760.01874 84.01433 760.34686 83.26433Q760.6906 82.4987 761.3625 82.1237Q762.05 81.7487 762.8625 81.7487Q763.8625 81.7487 764.5031 82.26433Q765.15936 82.76433 765.34686 83.71745L764.3156 83.8737Q764.175 83.2487 763.8 82.9362Q763.425 82.60808 762.89374 82.60808Q762.09686 82.60808 761.59686 83.1862Q761.09686 83.7487 761.09686 84.98308Q761.09686 86.2487 761.58124 86.8112Q762.0656 87.3737 762.83124 87.3737Q763.45624 87.3737 763.8625 86.9987Q764.28436 86.6237 764.40936 85.82683ZM770.425 88.10808L770.425 87.1862Q769.6906 88.2487 768.4406 88.2487Q767.89374 88.2487 767.40936 88.04558Q766.9406 87.82683 766.70624 87.51433Q766.47186 87.1862 766.3781 86.71745Q766.3156 86.42058 766.3156 85.73308L766.3156 81.88933L767.3781 81.88933L767.3781 85.34245Q767.3781 86.15495 767.4406 86.45183Q767.53436 86.85808 767.84686 87.10808Q768.175 87.34245 768.65936 87.34245Q769.1281 87.34245 769.53436 87.10808Q769.95624 86.85808 770.1281 86.4362Q770.3156 86.01433 770.3156 85.21745L770.3156 81.88933L771.3625 81.88933L771.3625 88.10808L770.425 88.10808ZM773.3156 88.10808L773.3156 79.51433L774.3781 79.51433L774.3781 88.10808L773.3156 88.10808ZM778.64374 87.17058L778.8 88.09245Q778.34686 88.1862 778.0031 88.1862Q777.425 88.1862 777.1125 88.01433Q776.8 87.82683 776.65936 87.52995Q776.53436 87.23308 776.53436 86.27995L776.53436 82.70183L775.76874 82.70183L775.76874 81.88933L776.53436 81.88933L776.53436 80.34245L777.58124 79.71745L777.58124 81.88933L778.64374 81.88933L778.64374 82.70183L777.58124 82.70183L777.58124 86.34245Q777.58124 86.79558 777.6281 86.92058Q777.6906 87.04558 777.8156 87.1237Q777.9406 87.20183 778.175 87.20183Q778.3625 87.20183 778.64374 87.17058ZM783.425 88.10808L783.425 87.1862Q782.6906 88.2487 781.4406 88.2487Q780.89374 88.2487 780.40936 88.04558Q779.9406 87.82683 779.70624 87.51433Q779.47186 87.1862 779.3781 86.71745Q779.3156 86.42058 779.3156 85.73308L779.3156 81.88933L780.3781 81.88933L780.3781 85.34245Q780.3781 86.15495 780.4406 86.45183Q780.53436 86.85808 780.84686 87.10808Q781.175 87.34245 781.65936 87.34245Q782.1281 87.34245 782.53436 87.10808Q782.95624 86.85808 783.1281 86.4362Q783.3156 86.01433 783.3156 85.21745L783.3156 81.88933L784.3625 81.88933L784.3625 88.10808L783.425 88.10808ZM786.33124 88.10808L786.33124 81.88933L787.28436 81.88933L787.28436 82.82683Q787.64374 82.17058 787.9406 81.96745Q788.2531 81.7487 788.6281 81.7487Q789.15936 81.7487 789.70624 82.07683L789.34686 83.0612Q788.95624 82.82683 788.58124 82.82683Q788.22186 82.82683 787.9406 83.04558Q787.675 83.2487 787.5656 83.6237Q787.3781 84.1862 787.3781 84.84245L787.3781 88.10808L786.33124 88.10808ZM794.59686 86.10808L795.6906 86.23308Q795.4406 87.1862 794.7375 87.71745Q794.03436 88.2487 792.95624 88.2487Q791.59686 88.2487 790.78436 87.40495Q789.9875 86.5612 789.9875 85.04558Q789.9875 83.48308 790.8 82.6237Q791.6125 81.7487 792.89374 81.7487Q794.14374 81.7487 794.925 82.59245Q795.72186 83.4362 795.72186 84.98308Q795.72186 85.07683 795.72186 85.26433L791.08124 85.26433Q791.14374 86.29558 791.65936 86.84245Q792.175 87.3737 792.95624 87.3737Q793.53436 87.3737 793.9406 87.07683Q794.3625 86.76433 794.59686 86.10808ZM791.14374 84.40495L794.6125 84.40495Q794.55 83.60808 794.22186 83.21745Q793.70624 82.60808 792.90936 82.60808Q792.175 82.60808 791.675 83.09245Q791.1906 83.57683 791.14374 84.40495Z" fill-rule="nonzero"/><path fill="#47705d" d="M766.01874 105.10808L764.97186 105.10808L764.97186 98.38933Q764.58124 98.7487 763.95624 99.1237Q763.34686 99.48308 762.8625 99.65495L762.8625 98.63933Q763.7375 98.21745 764.39374 97.63933Q765.0656 97.04558 765.34686 96.48308L766.01874 96.48308L766.01874 105.10808ZM769.05 100.8737Q769.05 99.34245 769.3625 98.42058Q769.675 97.48308 770.28436 96.98308Q770.90936 96.48308 771.84686 96.48308Q772.53436 96.48308 773.05 96.76433Q773.58124 97.04558 773.925 97.57683Q774.26874 98.09245 774.45624 98.84245Q774.64374 99.59245 774.64374 100.8737Q774.64374 102.38933 774.33124 103.3112Q774.03436 104.23308 773.40936 104.7487Q772.8 105.2487 771.84686 105.2487Q770.6125 105.2487 769.89374 104.35808Q769.05 103.29558 769.05 100.8737ZM770.1281 100.8737Q770.1281 102.98308 770.6281 103.6862Q771.1281 104.38933 771.84686 104.38933Q772.58124 104.38933 773.0656 103.6862Q773.5656 102.98308 773.5656 100.8737Q773.5656 98.7487 773.0656 98.0612Q772.58124 97.35808 771.83124 97.35808Q771.1125 97.35808 770.675 97.96745Q770.1281 98.7487 770.1281 100.8737ZM776.64374 105.10808L776.64374 103.90495L777.84686 103.90495L777.84686 105.10808L776.64374 105.10808ZM783.01874 105.10808L781.97186 105.10808L781.97186 98.38933Q781.58124 98.7487 780.95624 99.1237Q780.34686 99.48308 779.8625 99.65495L779.8625 98.63933Q780.7375 98.21745 781.39374 97.63933Q782.0656 97.04558 782.34686 96.48308L783.01874 96.48308L783.01874 105.10808ZM786.2531 98.57683Q786.2531 97.65495 786.70624 97.01433Q787.175 96.3737 788.05 96.3737Q788.8625 96.3737 789.39374 96.95183Q789.925 97.52995 789.925 98.63933Q789.925 99.73308 789.3781 100.32683Q788.84686 100.90495 788.0656 100.90495Q787.28436 100.90495 786.76874 100.32683Q786.2531 99.7487 786.2531 98.57683ZM788.08124 97.09245Q787.6906 97.09245 787.425 97.4362Q787.175 97.77995 787.175 98.6862Q787.175 99.51433 787.425 99.85808Q787.6906 100.1862 788.08124 100.1862Q788.4875 100.1862 788.7375 99.84245Q789.0031 99.4987 789.0031 98.60808Q789.0031 97.76433 788.7375 97.4362Q788.47186 97.09245 788.08124 97.09245ZM788.08124 105.42058L792.78436 96.3737L793.64374 96.3737L788.95624 105.42058L788.08124 105.42058ZM791.8 103.09245Q791.8 102.17058 792.2531 101.52995Q792.72186 100.88933 793.6125 100.88933Q794.425 100.88933 794.95624 101.46745Q795.4875 102.02995 795.4875 103.15495Q795.4875 104.2487 794.9406 104.84245Q794.40936 105.42058 793.6125 105.42058Q792.84686 105.42058 792.3156 104.84245Q791.8 104.26433 791.8 103.09245ZM793.64374 101.60808Q793.2375 101.60808 792.97186 101.95183Q792.72186 102.29558 792.72186 103.20183Q792.72186 104.01433 792.9875 104.35808Q793.2531 104.70183 793.64374 104.70183Q794.03436 104.70183 794.3 104.35808Q794.5656 104.01433 794.5656 103.10808Q794.5656 102.27995 794.3 101.95183Q794.03436 101.60808 793.64374 101.60808Z" fill-rule="nonzero"/><path stroke="#294036" stroke-width="1.0" stroke-linecap="butt" d="M796.55 92.60808L646.05 92.60808L478.8977 92.60808" fill-rule="nonzero"/><path fill="#47705d" d="M480.8977 92.60808C480.8977 91.50351 480.00226 90.60808 478.8977 90.60808C477.79312 90.60808 476.8977 91.50351 476.8977 92.60808C476.8977 93.71265 477.79312 94.60808 478.8977 94.60808C480.00226 94.60808 480.8977 93.71265 480.8977 92.60808" fill-rule="nonzero"/><path fill="#1a1a1a" d="M720.65936 225.57365L720.65936 217.99553L717.83124 217.99553L717.83124 216.9799L724.64374 216.9799L724.64374 217.99553L721.8 217.99553L721.8 225.57365L720.65936 225.57365ZM725.33124 225.57365L725.33124 219.3549L726.28436 219.3549L726.28436 220.2924Q726.64374 219.63615 726.9406 219.43303Q727.2531 219.21428 727.6281 219.21428Q728.15936 219.21428 728.70624 219.5424L728.34686 220.52678Q727.95624 220.2924 727.58124 220.2924Q727.22186 220.2924 726.9406 220.51115Q726.675 220.71428 726.5656 221.08928Q726.3781 221.65178 726.3781 222.30803L726.3781 225.57365L725.33124 225.57365ZM733.40936 224.80803Q732.8156 225.30803 732.26874 225.51115Q731.7375 225.71428 731.1125 225.71428Q730.08124 225.71428 729.53436 225.21428Q728.9875 224.71428 728.9875 223.93303Q728.9875 223.4799 729.1906 223.1049Q729.39374 222.71428 729.7375 222.49553Q730.08124 222.26115 730.5031 222.15178Q730.8 222.05803 731.4406 221.9799Q732.70624 221.83928 733.3156 221.62053Q733.3156 221.40178 733.3156 221.3549Q733.3156 220.69865 733.01874 220.43303Q732.6125 220.08928 731.8156 220.08928Q731.08124 220.08928 730.72186 220.3549Q730.3625 220.6049 730.1906 221.26115L729.15936 221.12053Q729.3 220.46428 729.6281 220.05803Q729.95624 219.65178 730.5656 219.43303Q731.175 219.21428 731.97186 219.21428Q732.76874 219.21428 733.26874 219.40178Q733.76874 219.58928 734.0031 219.87053Q734.2375 220.15178 734.33124 220.58928Q734.3781 220.8549 734.3781 221.55803L734.3781 222.96428Q734.3781 224.43303 734.4406 224.82365Q734.51874 225.21428 734.72186 225.57365L733.6125 225.57365Q733.45624 225.24553 733.40936 224.80803ZM733.3156 222.44865Q732.7375 222.68303 731.59686 222.8549Q730.9406 222.94865 730.675 223.07365Q730.40936 223.18303 730.2531 223.40178Q730.1125 223.62053 730.1125 223.90178Q730.1125 224.32365 730.425 224.6049Q730.7531 224.88615 731.3625 224.88615Q731.97186 224.88615 732.4406 224.62053Q732.925 224.3549 733.14374 223.88615Q733.3156 223.52678 733.3156 222.83928L733.3156 222.44865ZM736.34686 225.57365L736.34686 219.3549L737.28436 219.3549L737.28436 220.2299Q737.97186 219.21428 739.26874 219.21428Q739.83124 219.21428 740.3 219.4174Q740.78436 219.62053 741.01874 219.94865Q741.2531 220.27678 741.34686 220.71428Q741.39374 221.01115 741.39374 221.74553L741.39374 225.57365L740.34686 225.57365L740.34686 221.7924Q740.34686 221.13615 740.22186 220.82365Q740.09686 220.51115 739.78436 220.32365Q739.47186 220.12053 739.05 220.12053Q738.3781 220.12053 737.8781 220.55803Q737.39374 220.9799 737.39374 222.1674L737.39374 225.57365L736.34686 225.57365ZM742.925 223.71428L743.95624 223.55803Q744.05 224.18303 744.4406 224.51115Q744.84686 224.83928 745.58124 224.83928Q746.3 224.83928 746.64374 224.55803Q747.0031 224.26115 747.0031 223.8549Q747.0031 223.49553 746.6906 223.2924Q746.47186 223.15178 745.6125 222.93303Q744.45624 222.63615 744.0031 222.43303Q743.5656 222.21428 743.33124 221.83928Q743.09686 221.46428 743.09686 220.99553Q743.09686 220.58928 743.28436 220.2299Q743.47186 219.87053 743.8 219.63615Q744.05 219.46428 744.47186 219.33928Q744.89374 219.21428 745.39374 219.21428Q746.1125 219.21428 746.65936 219.43303Q747.22186 219.63615 747.4875 219.99553Q747.7531 220.3549 747.84686 220.94865L746.8156 221.08928Q746.7531 220.62053 746.40936 220.3549Q746.08124 220.07365 745.45624 220.07365Q744.7375 220.07365 744.425 220.32365Q744.1125 220.55803 744.1125 220.88615Q744.1125 221.08928 744.2375 221.24553Q744.3781 221.4174 744.64374 221.52678Q744.8 221.58928 745.58124 221.7924Q746.70624 222.1049 747.14374 222.2924Q747.58124 222.4799 747.83124 222.83928Q748.08124 223.19865 748.08124 223.74553Q748.08124 224.27678 747.76874 224.74553Q747.47186 225.19865 746.89374 225.46428Q746.3156 225.71428 745.58124 225.71428Q744.3625 225.71428 743.72186 225.21428Q743.09686 224.69865 742.925 223.71428ZM749.34686 227.96428L749.34686 219.3549L750.3 219.3549L750.3 220.15178Q750.64374 219.68303 751.0656 219.44865Q751.5031 219.21428 752.1125 219.21428Q752.90936 219.21428 753.51874 219.62053Q754.1281 220.02678 754.425 220.77678Q754.7375 221.52678 754.7375 222.4174Q754.7375 223.37053 754.39374 224.13615Q754.0656 224.90178 753.40936 225.30803Q752.7531 225.71428 752.03436 225.71428Q751.5031 225.71428 751.08124 225.49553Q750.65936 225.26115 750.39374 224.93303L750.39374 227.96428L749.34686 227.96428ZM750.3 222.49553Q750.3 223.69865 750.78436 224.27678Q751.26874 224.83928 751.95624 224.83928Q752.65936 224.83928 753.15936 224.24553Q753.65936 223.65178 753.65936 222.40178Q753.65936 221.21428 753.175 220.63615Q752.6906 220.0424 752.0031 220.0424Q751.33124 220.0424 750.8156 220.6674Q750.3 221.2924 750.3 222.49553ZM755.95624 222.46428Q755.95624 220.7299 756.90936 219.90178Q757.70624 219.21428 758.8625 219.21428Q760.14374 219.21428 760.95624 220.05803Q761.78436 220.88615 761.78436 222.37053Q761.78436 223.57365 761.425 224.26115Q761.0656 224.94865 760.3625 225.33928Q759.675 225.71428 758.8625 225.71428Q757.5656 225.71428 756.7531 224.88615Q755.95624 224.0424 755.95624 222.46428ZM757.03436 222.46428Q757.03436 223.65178 757.55 224.24553Q758.08124 224.83928 758.8625 224.83928Q759.65936 224.83928 760.175 224.24553Q760.6906 223.65178 760.6906 222.43303Q760.6906 221.27678 760.15936 220.68303Q759.64374 220.08928 758.8625 220.08928Q758.08124 220.08928 757.55 220.68303Q757.03436 221.26115 757.03436 222.46428ZM763.33124 225.57365L763.33124 219.3549L764.28436 219.3549L764.28436 220.2924Q764.64374 219.63615 764.9406 219.43303Q765.2531 219.21428 765.6281 219.21428Q766.15936 219.21428 766.70624 219.5424L766.34686 220.52678Q765.95624 220.2924 765.58124 220.2924Q765.22186 220.2924 764.9406 220.51115Q764.675 220.71428 764.5656 221.08928Q764.3781 221.65178 764.3781 222.30803L764.3781 225.57365L763.33124 225.57365ZM769.64374 224.63615L769.8 225.55803Q769.34686 225.65178 769.0031 225.65178Q768.425 225.65178 768.1125 225.4799Q767.8 225.2924 767.65936 224.99553Q767.53436 224.69865 767.53436 223.74553L767.53436 220.1674L766.76874 220.1674L766.76874 219.3549L767.53436 219.3549L767.53436 217.80803L768.58124 217.18303L768.58124 219.3549L769.64374 219.3549L769.64374 220.1674L768.58124 220.1674L768.58124 223.80803Q768.58124 224.26115 768.6281 224.38615Q768.6906 224.51115 768.8156 224.58928Q768.9406 224.6674 769.175 224.6674Q769.3625 224.6674 769.64374 224.63615ZM774.40936 224.80803Q773.8156 225.30803 773.26874 225.51115Q772.7375 225.71428 772.1125 225.71428Q771.08124 225.71428 770.53436 225.21428Q769.9875 224.71428 769.9875 223.93303Q769.9875 223.4799 770.1906 223.1049Q770.39374 222.71428 770.7375 222.49553Q771.08124 222.26115 771.5031 222.15178Q771.8 222.05803 772.4406 221.9799Q773.70624 221.83928 774.3156 221.62053Q774.3156 221.40178 774.3156 221.3549Q774.3156 220.69865 774.01874 220.43303Q773.6125 220.08928 772.8156 220.08928Q772.08124 220.08928 771.72186 220.3549Q771.3625 220.6049 771.1906 221.26115L770.15936 221.12053Q770.3 220.46428 770.6281 220.05803Q770.95624 219.65178 771.5656 219.43303Q772.175 219.21428 772.97186 219.21428Q773.76874 219.21428 774.26874 219.40178Q774.76874 219.58928 775.0031 219.87053Q775.2375 220.15178 775.33124 220.58928Q775.3781 220.8549 775.3781 221.55803L775.3781 222.96428Q775.3781 224.43303 775.4406 224.82365Q775.51874 225.21428 775.72186 225.57365L774.6125 225.57365Q774.45624 225.24553 774.40936 224.80803ZM774.3156 222.44865Q773.7375 222.68303 772.59686 222.8549Q771.9406 222.94865 771.675 223.07365Q771.40936 223.18303 771.2531 223.40178Q771.1125 223.62053 771.1125 223.90178Q771.1125 224.32365 771.425 224.6049Q771.7531 224.88615 772.3625 224.88615Q772.97186 224.88615 773.4406 224.62053Q773.925 224.3549 774.14374 223.88615Q774.3156 223.52678 774.3156 222.83928L774.3156 222.44865ZM779.64374 224.63615L779.8 225.55803Q779.34686 225.65178 779.0031 225.65178Q778.425 225.65178 778.1125 225.4799Q777.8 225.2924 777.65936 224.99553Q777.53436 224.69865 777.53436 223.74553L777.53436 220.1674L776.76874 220.1674L776.76874 219.3549L777.53436 219.3549L777.53436 217.80803L778.58124 217.18303L778.58124 219.3549L779.64374 219.3549L779.64374 220.1674L778.58124 220.1674L778.58124 223.80803Q778.58124 224.26115 778.6281 224.38615Q778.6906 224.51115 778.8156 224.58928Q778.9406 224.6674 779.175 224.6674Q779.3625 224.6674 779.64374 224.63615ZM780.34686 218.19865L780.34686 216.9799L781.40936 216.9799L781.40936 218.19865L780.34686 218.19865ZM780.34686 225.57365L780.34686 219.3549L781.40936 219.3549L781.40936 225.57365L780.34686 225.57365ZM782.95624 222.46428Q782.95624 220.7299 783.90936 219.90178Q784.70624 219.21428 785.8625 219.21428Q787.14374 219.21428 787.95624 220.05803Q788.78436 220.88615 788.78436 222.37053Q788.78436 223.57365 788.425 224.26115Q788.0656 224.94865 787.3625 225.33928Q786.675 225.71428 785.8625 225.71428Q784.5656 225.71428 783.7531 224.88615Q782.95624 224.0424 782.95624 222.46428ZM784.03436 222.46428Q784.03436 223.65178 784.55 224.24553Q785.08124 224.83928 785.8625 224.83928Q786.65936 224.83928 787.175 224.24553Q787.6906 223.65178 787.6906 222.43303Q787.6906 221.27678 787.15936 220.68303Q786.64374 220.08928 785.8625 220.08928Q785.08124 220.08928 784.55 220.68303Q784.03436 221.26115 784.03436 222.46428ZM790.34686 225.57365L790.34686 219.3549L791.28436 219.3549L791.28436 220.2299Q791.97186 219.21428 793.26874 219.21428Q793.83124 219.21428 794.3 219.4174Q794.78436 219.62053 795.01874 219.94865Q795.2531 220.27678 795.34686 220.71428Q795.39374 221.01115 795.39374 221.74553L795.39374 225.57365L794.34686 225.57365L794.34686 221.7924Q794.34686 221.13615 794.22186 220.82365Q794.09686 220.51115 793.78436 220.32365Q793.47186 220.12053 793.05 220.12053Q792.3781 220.12053 791.8781 220.55803Q791.39374 220.9799 791.39374 222.1674L791.39374 225.57365L790.34686 225.57365Z" fill-rule="nonzero"/><path fill="#47705d" d="M767.59686 241.55803L767.59686 242.57365L761.90936 242.57365Q761.90936 242.19865 762.03436 241.83928Q762.2531 241.26115 762.72186 240.69865Q763.20624 240.13615 764.1125 239.40178Q765.51874 238.24553 766.0031 237.57365Q766.5031 236.90178 766.5031 236.30803Q766.5031 235.68303 766.05 235.26115Q765.59686 234.82365 764.8781 234.82365Q764.1125 234.82365 763.65936 235.27678Q763.20624 235.7299 763.1906 236.5424L762.1125 236.43303Q762.22186 235.21428 762.9406 234.58928Q763.675 233.94865 764.90936 233.94865Q766.14374 233.94865 766.8625 234.63615Q767.58124 235.32365 767.58124 236.33928Q767.58124 236.8549 767.3625 237.3549Q767.15936 237.83928 766.65936 238.40178Q766.175 238.94865 765.05 239.90178Q764.09686 240.69865 763.8156 240.99553Q763.55 241.27678 763.3781 241.55803L767.59686 241.55803ZM770.675 237.9174Q770.01874 237.6674 769.6906 237.2299Q769.3781 236.77678 769.3781 236.1674Q769.3781 235.2299 770.05 234.58928Q770.7375 233.94865 771.84686 233.94865Q772.97186 233.94865 773.65936 234.6049Q774.34686 235.26115 774.34686 236.19865Q774.34686 236.7924 774.03436 237.2299Q773.72186 237.6674 773.08124 237.9174Q773.8781 238.1674 774.28436 238.74553Q774.6906 239.32365 774.6906 240.12053Q774.6906 241.21428 773.90936 241.96428Q773.14374 242.71428 771.8625 242.71428Q770.59686 242.71428 769.8156 241.96428Q769.03436 241.21428 769.03436 240.08928Q769.03436 239.24553 769.45624 238.68303Q769.89374 238.12053 770.675 237.9174ZM770.45624 236.12053Q770.45624 236.7299 770.84686 237.12053Q771.2531 237.51115 771.8781 237.51115Q772.4875 237.51115 772.8781 237.13615Q773.26874 236.74553 773.26874 236.18303Q773.26874 235.6049 772.8625 235.21428Q772.45624 234.80803 771.8625 234.80803Q771.2531 234.80803 770.84686 235.19865Q770.45624 235.58928 770.45624 236.12053ZM770.1281 240.08928Q770.1281 240.5424 770.33124 240.96428Q770.55 241.38615 770.97186 241.62053Q771.39374 241.8549 771.8781 241.8549Q772.6281 241.8549 773.1125 241.37053Q773.6125 240.88615 773.6125 240.13615Q773.6125 239.37053 773.1125 238.87053Q772.6125 238.37053 771.84686 238.37053Q771.09686 238.37053 770.6125 238.87053Q770.1281 239.3549 770.1281 240.08928ZM776.64374 242.57365L776.64374 241.37053L777.84686 241.37053L777.84686 242.57365L776.64374 242.57365ZM779.05 240.30803L780.1125 240.1674Q780.28436 241.05803 780.72186 241.46428Q781.15936 241.8549 781.78436 241.8549Q782.53436 241.8549 783.05 241.33928Q783.5656 240.82365 783.5656 240.05803Q783.5656 239.33928 783.08124 238.87053Q782.6125 238.38615 781.8781 238.38615Q781.58124 238.38615 781.1281 238.51115L781.2531 237.57365Q781.3625 237.58928 781.425 237.58928Q782.09686 237.58928 782.6281 237.24553Q783.175 236.88615 783.175 236.15178Q783.175 235.57365 782.78436 235.19865Q782.39374 234.80803 781.76874 234.80803Q781.15936 234.80803 780.7375 235.19865Q780.33124 235.58928 780.22186 236.3549L779.15936 236.1674Q779.34686 235.12053 780.03436 234.5424Q780.72186 233.94865 781.7375 233.94865Q782.4406 233.94865 783.03436 234.26115Q783.6281 234.55803 783.9406 235.07365Q784.2531 235.58928 784.2531 236.18303Q784.2531 236.7299 783.95624 237.19865Q783.65936 237.65178 783.08124 237.9174Q783.83124 238.08928 784.2531 238.65178Q784.675 239.19865 784.675 240.0424Q784.675 241.1674 783.84686 241.94865Q783.03436 242.7299 781.78436 242.7299Q780.65936 242.7299 779.90936 242.05803Q779.15936 241.37053 779.05 240.30803ZM786.2531 236.0424Q786.2531 235.12053 786.70624 234.4799Q787.175 233.83928 788.05 233.83928Q788.8625 233.83928 789.39374 234.4174Q789.925 234.99553 789.925 236.1049Q789.925 237.19865 789.3781 237.7924Q788.84686 238.37053 788.0656 238.37053Q787.28436 238.37053 786.76874 237.7924Q786.2531 237.21428 786.2531 236.0424ZM788.08124 234.55803Q787.6906 234.55803 787.425 234.90178Q787.175 235.24553 787.175 236.15178Q787.175 236.9799 787.425 237.32365Q787.6906 237.65178 788.08124 237.65178Q788.4875 237.65178 788.7375 237.30803Q789.0031 236.96428 789.0031 236.07365Q789.0031 235.2299 788.7375 234.90178Q788.47186 234.55803 788.08124 234.55803ZM788.08124 242.88615L792.78436 233.83928L793.64374 233.83928L788.95624 242.88615L788.08124 242.88615ZM791.8 240.55803Q791.8 239.63615 792.2531 238.99553Q792.72186 238.3549 793.6125 238.3549Q794.425 238.3549 794.95624 238.93303Q795.4875 239.49553 795.4875 240.62053Q795.4875 241.71428 794.9406 242.30803Q794.40936 242.88615 793.6125 242.88615Q792.84686 242.88615 792.3156 242.30803Q791.8 241.7299 791.8 240.55803ZM793.64374 239.07365Q793.2375 239.07365 792.97186 239.4174Q792.72186 239.76115 792.72186 240.6674Q792.72186 241.4799 792.9875 241.82365Q793.2531 242.1674 793.64374 242.1674Q794.03436 242.1674 794.3 241.82365Q794.5656 241.4799 794.5656 240.57365Q794.5656 239.74553 794.3 239.4174Q794.03436 239.07365 793.64374 239.07365Z" fill-rule="nonzero"/><path stroke="#294036" stroke-width="1.0" stroke-linecap="butt" d="M796.55 230.07365L646.05 230.07365L628.351 230.07365" fill-rule="nonzero"/><path fill="#47705d" d="M630.351 230.07365C630.351 228.96909 629.4556 228.07365 628.351 228.07365C627.24646 228.07365 626.351 228.96909 626.351 230.07365C626.351 231.17822 627.24646 232.07365 628.351 232.07365C629.4556 232.07365 630.351 231.17822 630.351 230.07365" fill-rule="nonzero"/></svg>