<svg version="1.1" viewBox="0.0 0.0 600.0 371.0" fill="none" stroke="none" stroke-linecap="square" stroke-miterlimit="10" width="600" height="371" xmlns:xlink="http://www.w3.org/1999/xlink" xmlns="http://www.w3.org/2000/svg"><path fill="#ffffff" d="M0 0L600.0 0L600.0 371.0L0 371.0L0 0Z" fill-rule="nonzero"/><path fill="#94ef8a" d="M295.80453 56.150658C297.20276 56.126053 298.60135 56.11375 300.0 56.11375L300.0 172.97874Z" fill-rule="nonzero"/><path fill="#436b3f" d="M279.07562 57.035267C284.62723 56.544334 290.21057 56.249092 295.80453 56.150658L300.0 172.97874Z" fill-rule="nonzero"/><path fill="#49d63a" d="M255.44072 60.353184C263.19452 58.85 271.09338 57.74114 279.07562 57.035267L300.0 172.97874Z" fill-rule="nonzero"/><path fill="#34a853" d="M188.80933 85.80434C207.93346 73.85188 230.73315 65.14309 255.44072 60.353184L300.0 172.97874Z" fill-rule="nonzero"/><path fill="#94ef8a" d="M141.22112 136.86548C150.35042 117.19752 166.77196 99.577545 188.80933 85.80434L300.0 172.97874Z" fill-rule="nonzero"/><path fill="#2b4237" d="M199.34091 291.2555C157.58966 269.16818 133.05 234.65459 133.05 198.02126L133.05 172.97874C133.05 209.61209 157.58966 244.12567 199.34091 266.21298Z" fill-rule="nonzero"/><path fill="#3d5e4e" d="M199.34091 266.21298C142.56255 236.176 119.22863 184.2456 141.22112 136.86548L300.0 172.97874Z" fill-rule="nonzero"/><path fill="#2d8224" d="M466.95 198.02126C466.95 242.36365 431.09888 282.88635 374.3884 302.64413C317.67792 322.40192 249.87822 317.99084 199.34091 291.2555L199.34091 266.21298C249.87822 292.94833 317.67792 297.3594 374.3884 277.60162C431.09888 257.84387 466.95 217.32115 466.95 172.97874Z" fill-rule="nonzero"/><path fill="#40b934" d="M300.0 56.11375C372.7139 56.11375 437.06503 89.05814 459.0999 137.56453C481.13477 186.07092 455.78497 238.98195 396.42575 268.38025C337.06656 297.77853 257.35165 296.90195 199.34091 266.21298L300.0 172.97874Z" fill-rule="nonzero"/><path fill="#1a1a1a" d="M19.128124 32.107258Q19.128124 29.966633 20.26875 28.763508Q21.425 27.544758 23.2375 27.544758Q24.440624 27.544758 25.39375 28.122883Q26.346874 28.685383 26.846874 29.701008Q27.346874 30.716633 27.346874 32.013508Q27.346874 33.310383 26.815624 34.341633Q26.284374 35.372883 25.315624 35.904133Q24.3625 36.435383 23.2375 36.435383Q22.01875 36.435383 21.065624 35.857258Q20.1125 35.263508 19.6125 34.263508Q19.128124 33.247883 19.128124 32.107258ZM20.3 32.122883Q20.3 33.685383 21.128124 34.576008Q21.971874 35.466633 23.2375 35.466633Q24.51875 35.466633 25.346874 34.576008Q26.175 33.669758 26.175 31.997883Q26.175 30.951008 25.815624 30.169758Q25.471874 29.388508 24.784374 28.966633Q24.096874 28.529133 23.253124 28.529133Q22.05 28.529133 21.175 29.357258Q20.3 30.185383 20.3 32.122883ZM30.64375 35.357258L30.8 36.279133Q30.346874 36.372883 30.003124 36.372883Q29.425 36.372883 29.1125 36.201008Q28.8 36.013508 28.659374 35.716633Q28.534374 35.419758 28.534374 34.466633L28.534374 30.888508L27.76875 30.888508L27.76875 30.076008L28.534374 30.076008L28.534374 28.529133L29.58125 27.904133L29.58125 30.076008L30.64375 30.076008L30.64375 30.888508L29.58125 30.888508L29.58125 34.529133Q29.58125 34.982258 29.628124 35.107258Q29.690624 35.232258 29.815624 35.310383Q29.940624 35.388508 30.175 35.388508Q30.3625 35.388508 30.64375 35.357258ZM31.346874 36.294758L31.346874 27.701008L32.39375 27.701008L32.39375 30.779133Q33.128124 29.935383 34.253124 29.935383Q34.95625 29.935383 35.45625 30.216633Q35.971874 30.482258 36.190624 30.966633Q36.409374 31.435383 36.409374 32.357258L36.409374 36.294758L35.3625 36.294758L35.3625 32.357258Q35.3625 31.560383 35.01875 31.201008Q34.675 30.841633 34.05 30.841633Q33.58125 30.841633 33.159374 31.091633Q32.753124 31.326008 32.565624 31.747883Q32.39375 32.154133 32.39375 32.888508L32.39375 36.294758L31.346874 36.294758ZM42.596874 34.294758L43.690624 34.419758Q43.440624 35.372883 42.7375 35.904133Q42.034374 36.435383 40.95625 36.435383Q39.596874 36.435383 38.784374 35.591633Q37.9875 34.747883 37.9875 33.232258Q37.9875 31.669758 38.8 30.810383Q39.6125 29.935383 40.89375 29.935383Q42.14375 29.935383 42.925 30.779133Q43.721874 31.622883 43.721874 33.169758Q43.721874 33.263508 43.721874 33.451008L39.08125 33.451008Q39.14375 34.482258 39.659374 35.029133Q40.175 35.560383 40.95625 35.560383Q41.534374 35.560383 41.940624 35.263508Q42.3625 34.951008 42.596874 34.294758ZM39.14375 32.591633L42.6125 32.591633Q42.55 31.794758 42.221874 31.404133Q41.70625 30.794758 40.909374 30.794758Q40.175 30.794758 39.675 31.279133Q39.190624 31.763508 39.14375 32.591633ZM45.33125 36.294758L45.33125 30.076008L46.284374 30.076008L46.284374 31.013508Q46.64375 30.357258 46.940624 30.154133Q47.253124 29.935383 47.628124 29.935383Q48.159374 29.935383 48.70625 30.263508L48.346874 31.247883Q47.95625 31.013508 47.58125 31.013508Q47.221874 31.013508 46.940624 31.232258Q46.675 31.435383 46.565624 31.810383Q46.378124 32.372883 46.378124 33.029133L46.378124 36.294758L45.33125 36.294758ZM52.4875 36.294758L52.4875 27.701008L56.3 27.701008Q57.45625 27.701008 58.05 27.935383Q58.64375 28.169758 59.003124 28.763508Q59.3625 29.341633 59.3625 30.044758Q59.3625 30.966633 58.76875 31.591633Q58.175 32.216633 56.940624 32.388508Q57.39375 32.607258 57.628124 32.810383Q58.128124 33.263508 58.565624 33.951008L60.065624 36.294758L58.628124 36.294758L57.503124 34.513508Q57.003124 33.732258 56.675 33.326008Q56.3625 32.919758 56.096874 32.763508Q55.846874 32.591633 55.58125 32.513508Q55.39375 32.482258 54.95625 32.482258L53.628124 32.482258L53.628124 36.294758L52.4875 36.294758ZM53.628124 31.497883L56.08125 31.497883Q56.846874 31.497883 57.284374 31.341633Q57.7375 31.169758 57.95625 30.826008Q58.190624 30.466633 58.190624 30.044758Q58.190624 29.435383 57.7375 29.044758Q57.3 28.654133 56.346874 28.654133L53.628124 28.654133L53.628124 31.497883ZM65.59688 34.294758L66.69063 34.419758Q66.44063 35.372883 65.7375 35.904133Q65.03438 36.435383 63.95625 36.435383Q62.596874 36.435383 61.784374 35.591633Q60.9875 34.747883 60.9875 33.232258Q60.9875 31.669758 61.8 30.810383Q62.6125 29.935383 63.89375 29.935383Q65.14375 29.935383 65.925 30.779133Q66.72188 31.622883 66.72188 33.169758Q66.72188 33.263508 66.72188 33.451008L62.08125 33.451008Q62.14375 34.482258 62.659374 35.029133Q63.175 35.560383 63.95625 35.560383Q64.53438 35.560383 64.94063 35.263508Q65.3625 34.951008 65.59688 34.294758ZM62.14375 32.591633L65.6125 32.591633Q65.55 31.794758 65.22188 31.404133Q64.70625 30.794758 63.909374 30.794758Q63.175 30.794758 62.675 31.279133Q62.190624 31.763508 62.14375 32.591633ZM68.34688 36.294758L68.34688 30.076008L69.28438 30.076008L69.28438 30.951008Q69.97188 29.935383 71.26875 29.935383Q71.83125 29.935383 72.3 30.138508Q72.78438 30.341633 73.01875 30.669758Q73.25313 30.997883 73.34688 31.435383Q73.39375 31.732258 73.39375 32.466633L73.39375 36.294758L72.34688 36.294758L72.34688 32.513508Q72.34688 31.857258 72.22188 31.544758Q72.09688 31.232258 71.78438 31.044758Q71.47188 30.841633 71.05 30.841633Q70.37813 30.841633 69.87813 31.279133Q69.39375 31.701008 69.39375 32.888508L69.39375 36.294758L68.34688 36.294758ZM79.59688 34.294758L80.69063 34.419758Q80.44063 35.372883 79.7375 35.904133Q79.03438 36.435383 77.95625 36.435383Q76.59688 36.435383 75.78438 35.591633Q74.9875 34.747883 74.9875 33.232258Q74.9875 31.669758 75.8 30.810383Q76.6125 29.935383 77.89375 29.935383Q79.14375 29.935383 79.925 30.779133Q80.72188 31.622883 80.72188 33.169758Q80.72188 33.263508 80.72188 33.451008L76.08125 33.451008Q76.14375 34.482258 76.65938 35.029133Q77.175 35.560383 77.95625 35.560383Q78.53438 35.560383 78.94063 35.263508Q79.3625 34.951008 79.59688 34.294758ZM76.14375 32.591633L79.6125 32.591633Q79.55 31.794758 79.22188 31.404133Q78.70625 30.794758 77.90938 30.794758Q77.175 30.794758 76.675 31.279133Q76.19063 31.763508 76.14375 32.591633ZM83.4875 36.294758L81.58125 30.076008L82.675 30.076008L83.65938 33.669758L84.03438 34.997883Q84.06563 34.904133 84.3625 33.716633L85.34688 30.076008L86.425 30.076008L87.3625 33.685383L87.675 34.872883L88.03438 33.669758L89.09688 30.076008L90.12813 30.076008L88.175 36.294758L87.08125 36.294758L86.09688 32.560383L85.84688 31.513508L84.59688 36.294758L83.4875 36.294758ZM95.40938 35.529133Q94.81563 36.029133 94.26875 36.232258Q93.7375 36.435383 93.1125 36.435383Q92.08125 36.435383 91.53438 35.935383Q90.9875 35.435383 90.9875 34.654133Q90.9875 34.201008 91.19063 33.826008Q91.39375 33.435383 91.7375 33.216633Q92.08125 32.982258 92.50313 32.872883Q92.8 32.779133 93.44063 32.701008Q94.70625 32.560383 95.31563 32.341633Q95.31563 32.122883 95.31563 32.076008Q95.31563 31.419758 95.01875 31.154133Q94.6125 30.810383 93.81563 30.810383Q93.08125 30.810383 92.72188 31.076008Q92.3625 31.326008 92.19063 31.982258L91.15938 31.841633Q91.3 31.185383 91.62813 30.779133Q91.95625 30.372883 92.56563 30.154133Q93.175 29.935383 93.97188 29.935383Q94.76875 29.935383 95.26875 30.122883Q95.76875 30.310383 96.00313 30.591633Q96.2375 30.872883 96.33125 31.310383Q96.37813 31.576008 96.37813 32.279133L96.37813 33.685383Q96.37813 35.154133 96.44063 35.544758Q96.51875 35.935383 96.72188 36.294758L95.6125 36.294758Q95.45625 35.966633 95.40938 35.529133ZM95.31563 33.169758Q94.7375 33.404133 93.59688 33.576008Q92.94063 33.669758 92.675 33.794758Q92.40938 33.904133 92.25313 34.122883Q92.1125 34.341633 92.1125 34.622883Q92.1125 35.044758 92.425 35.326008Q92.75313 35.607258 93.3625 35.607258Q93.97188 35.607258 94.44063 35.341633Q94.925 35.076008 95.14375 34.607258Q95.31563 34.247883 95.31563 33.560383L95.31563 33.169758ZM99.31563 36.294758L98.33125 36.294758L98.33125 27.701008L99.39375 27.701008L99.39375 30.763508Q100.06563 29.935383 101.09688 29.935383Q101.675 29.935383 102.175 30.169758Q102.69063 30.388508 103.01875 30.810383Q103.3625 31.232258 103.55 31.826008Q103.7375 32.419758 103.7375 33.091633Q103.7375 34.685383 102.94063 35.560383Q102.14375 36.435383 101.05 36.435383Q99.94063 36.435383 99.31563 35.513508L99.31563 36.294758ZM99.3 33.138508Q99.3 34.247883 99.6125 34.747883Q100.1125 35.560383 100.95625 35.560383Q101.64375 35.560383 102.14375 34.966633Q102.65938 34.372883 102.65938 33.169758Q102.65938 31.951008 102.175 31.372883Q101.69063 30.794758 101.00313 30.794758Q100.31563 30.794758 99.8 31.404133Q99.3 31.997883 99.3 33.138508ZM105.31563 36.294758L105.31563 27.701008L106.37813 27.701008L106.37813 36.294758L105.31563 36.294758ZM112.59688 34.294758L113.69063 34.419758Q113.44063 35.372883 112.7375 35.904133Q112.03438 36.435383 110.95625 36.435383Q109.59688 36.435383 108.78438 35.591633Q107.9875 34.747883 107.9875 33.232258Q107.9875 31.669758 108.8 30.810383Q109.6125 29.935383 110.89375 29.935383Q112.14375 29.935383 112.925 30.779133Q113.72188 31.622883 113.72188 33.169758Q113.72188 33.263508 113.72188 33.451008L109.08125 33.451008Q109.14375 34.482258 109.65938 35.029133Q110.175 35.560383 110.95625 35.560383Q111.53438 35.560383 111.94063 35.263508Q112.3625 34.951008 112.59688 34.294758ZM109.14375 32.591633L112.6125 32.591633Q112.55 31.794758 112.22188 31.404133Q111.70625 30.794758 110.90938 30.794758Q110.175 30.794758 109.675 31.279133Q109.19063 31.763508 109.14375 32.591633ZM114.925 34.435383L115.95625 34.279133Q116.05 34.904133 116.44063 35.232258Q116.84688 35.560383 117.58125 35.560383Q118.3 35.560383 118.64375 35.279133Q119.00313 34.982258 119.00313 34.576008Q119.00313 34.216633 118.69063 34.013508Q118.47188 33.872883 117.6125 33.654133Q116.45625 33.357258 116.00313 33.154133Q115.56563 32.935383 115.33125 32.560383Q115.09688 32.185383 115.09688 31.716633Q115.09688 31.310383 115.28438 30.951008Q115.47188 30.591633 115.8 30.357258Q116.05 30.185383 116.47188 30.060383Q116.89375 29.935383 117.39375 29.935383Q118.1125 29.935383 118.65938 30.154133Q119.22188 30.357258 119.4875 30.716633Q119.75313 31.076008 119.84688 31.669758L118.81563 31.810383Q118.75313 31.341633 118.40938 31.076008Q118.08125 30.794758 117.45625 30.794758Q116.7375 30.794758 116.425 31.044758Q116.1125 31.279133 116.1125 31.607258Q116.1125 31.810383 116.2375 31.966633Q116.37813 32.138508 116.64375 32.247883Q116.8 32.310383 117.58125 32.513508Q118.70625 32.826008 119.14375 33.013508Q119.58125 33.201008 119.83125 33.560383Q120.08125 33.919758 120.08125 34.466633Q120.08125 34.997883 119.76875 35.466633Q119.47188 35.919758 118.89375 36.185383Q118.31563 36.435383 117.58125 36.435383Q116.3625 36.435383 115.72188 35.935383Q115.09688 35.419758 114.925 34.435383Z" fill-rule="nonzero"/><path fill="#9e9e9e" d="M23.01875 53.294758L21.971874 53.294758L21.971874 46.576008Q21.58125 46.935383 20.95625 47.310383Q20.346874 47.669758 19.8625 47.841633L19.8625 46.826008Q20.7375 46.404133 21.39375 45.826008Q22.065624 45.232258 22.346874 44.669758L23.01875 44.669758L23.01875 53.294758ZM26.64375 53.294758L26.64375 52.091633L27.846874 52.091633L27.846874 53.294758L26.64375 53.294758ZM34.51875 46.810383L33.471874 46.888508Q33.33125 46.263508 33.08125 45.982258Q32.64375 45.529133 32.01875 45.529133Q31.51875 45.529133 31.128124 45.810383Q30.64375 46.185383 30.346874 46.888508Q30.065624 47.576008 30.05 48.857258Q30.425 48.279133 30.971874 47.997883Q31.534374 47.716633 32.14375 47.716633Q33.190624 47.716633 33.925 48.497883Q34.675 49.279133 34.675 50.497883Q34.675 51.310383 34.315624 52.013508Q33.971874 52.701008 33.3625 53.076008Q32.753124 53.435383 31.9875 53.435383Q30.659374 53.435383 29.83125 52.466633Q29.003124 51.497883 29.003124 49.279133Q29.003124 46.779133 29.925 45.654133Q30.721874 44.669758 32.08125 44.669758Q33.096874 44.669758 33.7375 45.247883Q34.39375 45.810383 34.51875 46.810383ZM30.221874 50.513508Q30.221874 51.060383 30.440624 51.560383Q30.675 52.044758 31.08125 52.310383Q31.503124 52.576008 31.971874 52.576008Q32.628124 52.576008 33.1125 52.044758Q33.596874 51.497883 33.596874 50.576008Q33.596874 49.685383 33.1125 49.169758Q32.64375 48.654133 31.925 48.654133Q31.20625 48.654133 30.70625 49.169758Q30.221874 49.685383 30.221874 50.513508ZM36.253124 46.763508Q36.253124 45.841633 36.70625 45.201008Q37.175 44.560383 38.05 44.560383Q38.8625 44.560383 39.39375 45.138508Q39.925 45.716633 39.925 46.826008Q39.925 47.919758 39.378124 48.513508Q38.846874 49.091633 38.065624 49.091633Q37.284374 49.091633 36.76875 48.513508Q36.253124 47.935383 36.253124 46.763508ZM38.08125 45.279133Q37.690624 45.279133 37.425 45.622883Q37.175 45.966633 37.175 46.872883Q37.175 47.701008 37.425 48.044758Q37.690624 48.372883 38.08125 48.372883Q38.4875 48.372883 38.7375 48.029133Q39.003124 47.685383 39.003124 46.794758Q39.003124 45.951008 38.7375 45.622883Q38.471874 45.279133 38.08125 45.279133ZM38.08125 53.607258L42.784374 44.560383L43.64375 44.560383L38.95625 53.607258L38.08125 53.607258ZM41.8 51.279133Q41.8 50.357258 42.253124 49.716633Q42.721874 49.076008 43.6125 49.076008Q44.425 49.076008 44.95625 49.654133Q45.4875 50.216633 45.4875 51.341633Q45.4875 52.435383 44.940624 53.029133Q44.409374 53.607258 43.6125 53.607258Q42.846874 53.607258 42.315624 53.029133Q41.8 52.451008 41.8 51.279133ZM43.64375 49.794758Q43.2375 49.794758 42.971874 50.138508Q42.721874 50.482258 42.721874 51.388508Q42.721874 52.201008 42.9875 52.544758Q43.253124 52.888508 43.64375 52.888508Q44.034374 52.888508 44.3 52.544758Q44.565624 52.201008 44.565624 51.294758Q44.565624 50.466633 44.3 50.138508Q44.034374 49.794758 43.64375 49.794758Z" fill-rule="nonzero"/><path stroke="#757575" stroke-width="1.0" stroke-linecap="butt" d="M18.55 40.794758L127.05 40.794758L288.05298 62.272423" fill-rule="nonzero"/><path fill="#9e9e9e" d="M290.05298 62.272423C290.05298 61.167854 289.15756 60.272423 288.05298 60.272423C286.94843 60.272423 286.05298 61.167854 286.05298 62.272423C286.05298 63.376995 286.94843 64.27242 288.05298 64.27242C289.15756 64.27242 290.05298 63.376995 290.05298 62.272423" fill-rule="nonzero"/><path fill="#1a1a1a" d="M19.096874 64.52914L20.159374 64.43539Q20.2375 65.09164 20.51875 65.49789Q20.8 65.90414 21.378124 66.16976Q21.971874 66.41976 22.70625 66.41976Q23.346874 66.41976 23.846874 66.23226Q24.346874 66.02914 24.58125 65.70101Q24.83125 65.35726 24.83125 64.96664Q24.83125 64.56039 24.596874 64.26351Q24.3625 63.95101 23.83125 63.747887Q23.471874 63.60726 22.284374 63.32601Q21.1125 63.04476 20.64375 62.79476Q20.01875 62.466637 19.721874 61.997887Q19.425 61.51351 19.425 60.91976Q19.425 60.279137 19.784374 59.716637Q20.159374 59.13851 20.8625 58.85726Q21.58125 58.560387 22.440624 58.560387Q23.39375 58.560387 24.128124 58.872887Q24.8625 59.16976 25.253124 59.779137Q25.64375 60.372887 25.675 61.122887L24.58125 61.20101Q24.4875 60.38851 23.971874 59.98226Q23.471874 59.560387 22.4875 59.560387Q21.45625 59.560387 20.9875 59.935387Q20.51875 60.310387 20.51875 60.841637Q20.51875 61.310387 20.846874 61.60726Q21.175 61.904137 22.55 62.216637Q23.940624 62.529137 24.45625 62.76351Q25.20625 63.122887 25.565624 63.654137Q25.925 64.16976 25.925 64.87289Q25.925 65.56039 25.534374 66.16976Q25.14375 66.76351 24.409374 67.10726Q23.675 67.43539 22.753124 67.43539Q21.58125 67.43539 20.784374 67.10726Q20.003124 66.76351 19.55 66.07601Q19.1125 65.38851 19.096874 64.52914ZM26.95625 64.18539Q26.95625 62.45101 27.909374 61.622887Q28.70625 60.935387 29.8625 60.935387Q31.14375 60.935387 31.95625 61.779137Q32.784374 62.60726 32.784374 64.09164Q32.784374 65.29476 32.425 65.98226Q32.065624 66.66976 31.3625 67.06039Q30.675 67.43539 29.8625 67.43539Q28.565624 67.43539 27.753124 66.60726Q26.95625 65.76351 26.95625 64.18539ZM28.034374 64.18539Q28.034374 65.37289 28.55 65.96664Q29.08125 66.56039 29.8625 66.56039Q30.659374 66.56039 31.175 65.96664Q31.690624 65.37289 31.690624 64.15414Q31.690624 62.997887 31.159374 62.404137Q30.64375 61.810387 29.8625 61.810387Q29.08125 61.810387 28.55 62.404137Q28.034374 62.98226 28.034374 64.18539ZM34.315624 67.29476L34.315624 58.70101L35.378124 58.70101L35.378124 67.29476L34.315624 67.29476ZM41.409374 66.52914Q40.815624 67.02914 40.26875 67.23226Q39.7375 67.43539 39.1125 67.43539Q38.08125 67.43539 37.534374 66.93539Q36.9875 66.43539 36.9875 65.65414Q36.9875 65.20101 37.190624 64.82601Q37.39375 64.43539 37.7375 64.21664Q38.08125 63.98226 38.503124 63.872887Q38.8 63.779137 39.440624 63.70101Q40.70625 63.560387 41.315624 63.341637Q41.315624 63.122887 41.315624 63.07601Q41.315624 62.41976 41.01875 62.154137Q40.6125 61.810387 39.815624 61.810387Q39.08125 61.810387 38.721874 62.07601Q38.3625 62.32601 38.190624 62.98226L37.159374 62.841637Q37.3 62.185387 37.628124 61.779137Q37.95625 61.372887 38.565624 61.154137Q39.175 60.935387 39.971874 60.935387Q40.76875 60.935387 41.26875 61.122887Q41.76875 61.310387 42.003124 61.591637Q42.2375 61.872887 42.33125 62.310387Q42.378124 62.57601 42.378124 63.279137L42.378124 64.68539Q42.378124 66.15414 42.440624 66.54476Q42.51875 66.93539 42.721874 67.29476L41.6125 67.29476Q41.45625 66.96664 41.409374 66.52914ZM41.315624 64.16976Q40.7375 64.40414 39.596874 64.57601Q38.940624 64.66976 38.675 64.79476Q38.409374 64.90414 38.253124 65.12289Q38.1125 65.34164 38.1125 65.62289Q38.1125 66.04476 38.425 66.32601Q38.753124 66.60726 39.3625 66.60726Q39.971874 66.60726 40.440624 66.34164Q40.925 66.07601 41.14375 65.60726Q41.315624 65.24789 41.315624 64.56039L41.315624 64.16976ZM44.33125 67.29476L44.33125 61.07601L45.284374 61.07601L45.284374 62.01351Q45.64375 61.35726 45.940624 61.154137Q46.253124 60.935387 46.628124 60.935387Q47.159374 60.935387 47.70625 61.26351L47.346874 62.247887Q46.95625 62.01351 46.58125 62.01351Q46.221874 62.01351 45.940624 62.23226Q45.675 62.435387 45.565624 62.810387Q45.378124 63.372887 45.378124 64.02914L45.378124 67.29476L44.33125 67.29476Z" fill-rule="nonzero"/><path fill="#9e9e9e" d="M24.596874 83.27914L24.596874 84.29476L18.909374 84.29476Q18.909374 83.91976 19.034374 83.56039Q19.253124 82.98226 19.721874 82.41976Q20.20625 81.85726 21.1125 81.12289Q22.51875 79.96664 23.003124 79.29476Q23.503124 78.62289 23.503124 78.02914Q23.503124 77.40414 23.05 76.98226Q22.596874 76.54476 21.878124 76.54476Q21.1125 76.54476 20.659374 76.99789Q20.20625 77.45101 20.190624 78.26351L19.1125 78.15414Q19.221874 76.93539 19.940624 76.31039Q20.675 75.66976 21.909374 75.66976Q23.14375 75.66976 23.8625 76.35726Q24.58125 77.04476 24.58125 78.06039Q24.58125 78.57601 24.3625 79.07601Q24.159374 79.56039 23.659374 80.12289Q23.175 80.66976 22.05 81.62289Q21.096874 82.41976 20.815624 82.71664Q20.55 82.99789 20.378124 83.27914L24.596874 83.27914ZM26.64375 84.29476L26.64375 83.09164L27.846874 83.09164L27.846874 84.29476L26.64375 84.29476ZM29.05 82.02914L30.1125 81.88851Q30.284374 82.77914 30.721874 83.18539Q31.159374 83.57601 31.784374 83.57601Q32.534374 83.57601 33.05 83.06039Q33.565624 82.54476 33.565624 81.77914Q33.565624 81.06039 33.08125 80.59164Q32.6125 80.10726 31.878124 80.10726Q31.58125 80.10726 31.128124 80.23226L31.253124 79.29476Q31.3625 79.31039 31.425 79.31039Q32.096874 79.31039 32.628124 78.96664Q33.175 78.60726 33.175 77.87289Q33.175 77.29476 32.784374 76.91976Q32.39375 76.52914 31.76875 76.52914Q31.159374 76.52914 30.7375 76.91976Q30.33125 77.31039 30.221874 78.07601L29.159374 77.88851Q29.346874 76.84164 30.034374 76.26351Q30.721874 75.66976 31.7375 75.66976Q32.440624 75.66976 33.034374 75.98226Q33.628124 76.27914 33.940624 76.79476Q34.253124 77.31039 34.253124 77.90414Q34.253124 78.45101 33.95625 78.91976Q33.659374 79.37289 33.08125 79.63851Q33.83125 79.81039 34.253124 80.37289Q34.675 80.91976 34.675 81.76351Q34.675 82.88851 33.846874 83.66976Q33.034374 84.45101 31.784374 84.45101Q30.659374 84.45101 29.909374 83.77914Q29.159374 83.09164 29.05 82.02914ZM36.253124 77.76351Q36.253124 76.84164 36.70625 76.20101Q37.175 75.56039 38.05 75.56039Q38.8625 75.56039 39.39375 76.13851Q39.925 76.71664 39.925 77.82601Q39.925 78.91976 39.378124 79.51351Q38.846874 80.09164 38.065624 80.09164Q37.284374 80.09164 36.76875 79.51351Q36.253124 78.93539 36.253124 77.76351ZM38.08125 76.27914Q37.690624 76.27914 37.425 76.62289Q37.175 76.96664 37.175 77.87289Q37.175 78.70101 37.425 79.04476Q37.690624 79.37289 38.08125 79.37289Q38.4875 79.37289 38.7375 79.02914Q39.003124 78.68539 39.003124 77.79476Q39.003124 76.95101 38.7375 76.62289Q38.471874 76.27914 38.08125 76.27914ZM38.08125 84.60726L42.784374 75.56039L43.64375 75.56039L38.95625 84.60726L38.08125 84.60726ZM41.8 82.27914Q41.8 81.35726 42.253124 80.71664Q42.721874 80.07601 43.6125 80.07601Q44.425 80.07601 44.95625 80.65414Q45.4875 81.21664 45.4875 82.34164Q45.4875 83.43539 44.940624 84.02914Q44.409374 84.60726 43.6125 84.60726Q42.846874 84.60726 42.315624 84.02914Q41.8 83.45101 41.8 82.27914ZM43.64375 80.79476Q43.2375 80.79476 42.971874 81.13851Q42.721874 81.48226 42.721874 82.38851Q42.721874 83.20101 42.9875 83.54476Q43.253124 83.88851 43.64375 83.88851Q44.034374 83.88851 44.3 83.54476Q44.565624 83.20101 44.565624 82.29476Q44.565624 81.46664 44.3 81.13851Q44.034374 80.79476 43.64375 80.79476Z" fill-rule="nonzero"/><path stroke="#757575" stroke-width="1.0" stroke-linecap="butt" d="M18.55 71.79476L127.05 71.79476L268.81387 64.124405" fill-rule="nonzero"/><path fill="#9e9e9e" d="M270.81387 64.124405C270.81387 63.01984 269.91846 62.12441 268.81387 62.12441C267.70932 62.12441 266.81387 63.01984 266.81387 64.124405C266.81387 65.22898 267.70932 66.124405 268.81387 66.124405C269.91846 66.124405 270.81387 65.22898 270.81387 64.124405" fill-rule="nonzero"/><path fill="#1a1a1a" d="M19.51875 98.29476L19.51875 89.70101L20.64375 89.70101L20.64375 93.23226L25.1125 93.23226L25.1125 89.70101L26.253124 89.70101L26.253124 98.29476L25.1125 98.29476L25.1125 94.24789L20.64375 94.24789L20.64375 98.29476L19.51875 98.29476ZM28.3 100.68539L28.175 99.70101Q28.51875 99.79476 28.784374 99.79476Q29.128124 99.79476 29.33125 99.66976Q29.55 99.56039 29.690624 99.35726Q29.784374 99.18539 30.01875 98.56039Q30.034374 98.48226 30.1125 98.31039L27.7375 92.07601L28.878124 92.07601L30.175 95.66976Q30.425 96.35726 30.628124 97.12289Q30.815624 96.38851 31.065624 95.70101L32.39375 92.07601L33.440624 92.07601L31.08125 98.40414Q30.690624 99.41976 30.4875 99.81039Q30.20625 100.34164 29.83125 100.57601Q29.471874 100.82601 28.971874 100.82601Q28.675 100.82601 28.3 100.68539ZM38.378124 98.29476L38.378124 97.51351Q37.784374 98.43539 36.64375 98.43539Q35.89375 98.43539 35.26875 98.02914Q34.64375 97.60726 34.3 96.87289Q33.95625 96.13851 33.95625 95.18539Q33.95625 94.26351 34.26875 93.49789Q34.58125 92.73226 35.20625 92.34164Q35.83125 91.93539 36.596874 91.93539Q37.159374 91.93539 37.596874 92.16976Q38.034374 92.40414 38.315624 92.77914L38.315624 89.70101L39.3625 89.70101L39.3625 98.29476L38.378124 98.29476ZM35.05 95.18539Q35.05 96.38851 35.55 96.98226Q36.05 97.56039 36.7375 97.56039Q37.425 97.56039 37.909374 96.99789Q38.39375 96.43539 38.39375 95.27914Q38.39375 93.99789 37.89375 93.40414Q37.409374 92.81039 36.690624 92.81039Q35.9875 92.81039 35.51875 93.38851Q35.05 93.95101 35.05 95.18539ZM41.33125 98.29476L41.33125 92.07601L42.284374 92.07601L42.284374 93.01351Q42.64375 92.35726 42.940624 92.15414Q43.253124 91.93539 43.628124 91.93539Q44.159374 91.93539 44.70625 92.26351L44.346874 93.24789Q43.95625 93.01351 43.58125 93.01351Q43.221874 93.01351 42.940624 93.23226Q42.675 93.43539 42.565624 93.81039Q42.378124 94.37289 42.378124 95.02914L42.378124 98.29476L41.33125 98.29476ZM44.95625 95.18539Q44.95625 93.45101 45.909374 92.62289Q46.70625 91.93539 47.8625 91.93539Q49.14375 91.93539 49.95625 92.77914Q50.784374 93.60726 50.784374 95.09164Q50.784374 96.29476 50.425 96.98226Q50.065624 97.66976 49.3625 98.06039Q48.675 98.43539 47.8625 98.43539Q46.565624 98.43539 45.753124 97.60726Q44.95625 96.76351 44.95625 95.18539ZM46.034374 95.18539Q46.034374 96.37289 46.55 96.96664Q47.08125 97.56039 47.8625 97.56039Q48.659374 97.56039 49.175 96.96664Q49.690624 96.37289 49.690624 95.15414Q49.690624 93.99789 49.159374 93.40414Q48.64375 92.81039 47.8625 92.81039Q47.08125 92.81039 46.55 93.40414Q46.034374 93.98226 46.034374 95.18539ZM52.346874 100.68539L52.346874 92.07601L53.3 92.07601L53.3 92.87289Q53.64375 92.40414 54.065624 92.16976Q54.503124 91.93539 55.1125 91.93539Q55.909374 91.93539 56.51875 92.34164Q57.128124 92.74789 57.425 93.49789Q57.7375 94.24789 57.7375 95.13851Q57.7375 96.09164 57.39375 96.85726Q57.065624 97.62289 56.409374 98.02914Q55.753124 98.43539 55.034374 98.43539Q54.503124 98.43539 54.08125 98.21664Q53.659374 97.98226 53.39375 97.65414L53.39375 100.68539L52.346874 100.68539ZM53.3 95.21664Q53.3 96.41976 53.784374 96.99789Q54.26875 97.56039 54.95625 97.56039Q55.659374 97.56039 56.159374 96.96664Q56.659374 96.37289 56.659374 95.12289Q56.659374 93.93539 56.175 93.35726Q55.690624 92.76351 55.003124 92.76351Q54.33125 92.76351 53.815624 93.38851Q53.3 94.01351 53.3 95.21664ZM58.95625 95.18539Q58.95625 93.45101 59.909374 92.62289Q60.70625 91.93539 61.8625 91.93539Q63.14375 91.93539 63.95625 92.77914Q64.78438 93.60726 64.78438 95.09164Q64.78438 96.29476 64.425 96.98226Q64.06563 97.66976 63.3625 98.06039Q62.675 98.43539 61.8625 98.43539Q60.565624 98.43539 59.753124 97.60726Q58.95625 96.76351 58.95625 95.18539ZM60.034374 95.18539Q60.034374 96.37289 60.55 96.96664Q61.08125 97.56039 61.8625 97.56039Q62.659374 97.56039 63.175 96.96664Q63.690624 96.37289 63.690624 95.15414Q63.690624 93.99789 63.159374 93.40414Q62.64375 92.81039 61.8625 92.81039Q61.08125 92.81039 60.55 93.40414Q60.034374 93.98226 60.034374 95.18539ZM67.4875 98.29476L65.58125 92.07601L66.675 92.07601L67.65938 95.66976L68.03438 96.99789Q68.06563 96.90414 68.3625 95.71664L69.34688 92.07601L70.425 92.07601L71.3625 95.68539L71.675 96.87289L72.03438 95.66976L73.09688 92.07601L74.12813 92.07601L72.175 98.29476L71.08125 98.29476L70.09688 94.56039L69.84688 93.51351L68.59688 98.29476L67.4875 98.29476ZM79.59688 96.29476L80.69063 96.41976Q80.44063 97.37289 79.7375 97.90414Q79.03438 98.43539 77.95625 98.43539Q76.59688 98.43539 75.78438 97.59164Q74.9875 96.74789 74.9875 95.23226Q74.9875 93.66976 75.8 92.81039Q76.6125 91.93539 77.89375 91.93539Q79.14375 91.93539 79.925 92.77914Q80.72188 93.62289 80.72188 95.16976Q80.72188 95.26351 80.72188 95.45101L76.08125 95.45101Q76.14375 96.48226 76.65938 97.02914Q77.175 97.56039 77.95625 97.56039Q78.53438 97.56039 78.94063 97.26351Q79.3625 96.95101 79.59688 96.29476ZM76.14375 94.59164L79.6125 94.59164Q79.55 93.79476 79.22188 93.40414Q78.70625 92.79476 77.90938 92.79476Q77.175 92.79476 76.675 93.27914Q76.19063 93.76351 76.14375 94.59164ZM82.33125 98.29476L82.33125 92.07601L83.28438 92.07601L83.28438 93.01351Q83.64375 92.35726 83.94063 92.15414Q84.25313 91.93539 84.62813 91.93539Q85.15938 91.93539 85.70625 92.26351L85.34688 93.24789Q84.95625 93.01351 84.58125 93.01351Q84.22188 93.01351 83.94063 93.23226Q83.675 93.43539 83.56563 93.81039Q83.37813 94.37289 83.37813 95.02914L83.37813 98.29476L82.33125 98.29476Z" fill-rule="nonzero"/><path fill="#9e9e9e" d="M19.1125 107.82601L19.1125 106.81039L24.675 106.81039L24.675 107.63851Q23.8625 108.51351 23.05 109.96664Q22.253124 111.40414 21.815624 112.93539Q21.4875 114.01351 21.409374 115.29476L20.315624 115.29476Q20.33125 114.27914 20.70625 112.84164Q21.096874 111.40414 21.8 110.07601Q22.51875 108.74789 23.33125 107.82601L19.1125 107.82601ZM26.64375 115.29476L26.64375 114.09164L27.846874 114.09164L27.846874 115.29476L26.64375 115.29476ZM29.05 113.02914L30.1125 112.88851Q30.284374 113.77914 30.721874 114.18539Q31.159374 114.57601 31.784374 114.57601Q32.534374 114.57601 33.05 114.06039Q33.565624 113.54476 33.565624 112.77914Q33.565624 112.06039 33.08125 111.59164Q32.6125 111.10726 31.878124 111.10726Q31.58125 111.10726 31.128124 111.23226L31.253124 110.29476Q31.3625 110.31039 31.425 110.31039Q32.096874 110.31039 32.628124 109.96664Q33.175 109.60726 33.175 108.87289Q33.175 108.29476 32.784374 107.91976Q32.39375 107.52914 31.76875 107.52914Q31.159374 107.52914 30.7375 107.91976Q30.33125 108.31039 30.221874 109.07601L29.159374 108.88851Q29.346874 107.84164 30.034374 107.26351Q30.721874 106.66976 31.7375 106.66976Q32.440624 106.66976 33.034374 106.98226Q33.628124 107.27914 33.940624 107.79476Q34.253124 108.31039 34.253124 108.90414Q34.253124 109.45101 33.95625 109.91976Q33.659374 110.37289 33.08125 110.63851Q33.83125 110.81039 34.253124 111.37289Q34.675 111.91976 34.675 112.76351Q34.675 113.88851 33.846874 114.66976Q33.034374 115.45101 31.784374 115.45101Q30.659374 115.45101 29.909374 114.77914Q29.159374 114.09164 29.05 113.02914ZM36.253124 108.76351Q36.253124 107.84164 36.70625 107.20101Q37.175 106.56039 38.05 106.56039Q38.8625 106.56039 39.39375 107.13851Q39.925 107.71664 39.925 108.82601Q39.925 109.91976 39.378124 110.51351Q38.846874 111.09164 38.065624 111.09164Q37.284374 111.09164 36.76875 110.51351Q36.253124 109.93539 36.253124 108.76351ZM38.08125 107.27914Q37.690624 107.27914 37.425 107.62289Q37.175 107.96664 37.175 108.87289Q37.175 109.70101 37.425 110.04476Q37.690624 110.37289 38.08125 110.37289Q38.4875 110.37289 38.7375 110.02914Q39.003124 109.68539 39.003124 108.79476Q39.003124 107.95101 38.7375 107.62289Q38.471874 107.27914 38.08125 107.27914ZM38.08125 115.60726L42.784374 106.56039L43.64375 106.56039L38.95625 115.60726L38.08125 115.60726ZM41.8 113.27914Q41.8 112.35726 42.253124 111.71664Q42.721874 111.07601 43.6125 111.07601Q44.425 111.07601 44.95625 111.65414Q45.4875 112.21664 45.4875 113.34164Q45.4875 114.43539 44.940624 115.02914Q44.409374 115.60726 43.6125 115.60726Q42.846874 115.60726 42.315624 115.02914Q41.8 114.45101 41.8 113.27914ZM43.64375 111.79476Q43.2375 111.79476 42.971874 112.13851Q42.721874 112.48226 42.721874 113.38851Q42.721874 114.20101 42.9875 114.54476Q43.253124 114.88851 43.64375 114.88851Q44.034374 114.88851 44.3 114.54476Q44.565624 114.20101 44.565624 113.29476Q44.565624 112.46664 44.3 112.13851Q44.034374 111.79476 43.64375 111.79476Z" fill-rule="nonzero"/><path stroke="#757575" stroke-width="1.0" stroke-linecap="butt" d="M18.55 102.79476L127.05 102.79476L224.02968 75.5221" fill-rule="nonzero"/><path fill="#9e9e9e" d="M226.02968 75.5221C226.02968 74.417534 225.13425 73.5221 224.02968 73.5221C222.9251 73.5221 222.02968 74.417534 222.02968 75.5221C222.02968 76.62667 222.9251 77.5221 224.02968 77.5221C225.13425 77.5221 226.02968 76.62667 226.02968 75.5221" fill-rule="nonzero"/><path fill="#1a1a1a" d="M20.971874 129.29475L18.690624 120.701004L19.8625 120.701004L21.175 126.34163Q21.378124 127.21663 21.534374 128.09163Q21.8625 126.71663 21.925 126.49788L23.55 120.701004L24.925 120.701004L26.159374 125.044754Q26.6125 126.669754 26.83125 128.09163Q26.9875 127.27913 27.253124 126.21663L28.596874 120.701004L29.7375 120.701004L27.39375 129.29475L26.284374 129.29475L24.4875 122.74788Q24.253124 121.93538 24.20625 121.74788Q24.08125 122.326004 23.95625 122.74788L22.14375 129.29475L20.971874 129.29475ZM30.346874 121.919754L30.346874 120.701004L31.409374 120.701004L31.409374 121.919754L30.346874 121.919754ZM30.346874 129.29475L30.346874 123.076004L31.409374 123.076004L31.409374 129.29475L30.346874 129.29475ZM33.346874 121.919754L33.346874 120.701004L34.409374 120.701004L34.409374 121.919754L33.346874 121.919754ZM33.346874 129.29475L33.346874 123.076004L34.409374 123.076004L34.409374 129.29475L33.346874 129.29475ZM36.346874 129.29475L36.346874 123.076004L37.284374 123.076004L37.284374 123.951004Q37.971874 122.93538 39.26875 122.93538Q39.83125 122.93538 40.3 123.138504Q40.784374 123.34163 41.01875 123.669754Q41.253124 123.99788 41.346874 124.43538Q41.39375 124.732254 41.39375 125.46663L41.39375 129.29475L40.346874 129.29475L40.346874 125.513504Q40.346874 124.857254 40.221874 124.544754Q40.096874 124.232254 39.784374 124.044754Q39.471874 123.84163 39.05 123.84163Q38.378124 123.84163 37.878124 124.27913Q37.39375 124.701004 37.39375 125.888504L37.39375 129.29475L36.346874 129.29475ZM47.378124 129.29475L47.378124 128.5135Q46.784374 129.43538 45.64375 129.43538Q44.89375 129.43538 44.26875 129.02913Q43.64375 128.60725 43.3 127.87288Q42.95625 127.138504 42.95625 126.18538Q42.95625 125.263504 43.26875 124.49788Q43.58125 123.732254 44.20625 123.34163Q44.83125 122.93538 45.596874 122.93538Q46.159374 122.93538 46.596874 123.169754Q47.034374 123.40413 47.315624 123.77913L47.315624 120.701004L48.3625 120.701004L48.3625 129.29475L47.378124 129.29475ZM44.05 126.18538Q44.05 127.388504 44.55 127.982254Q45.05 128.56038 45.7375 128.56038Q46.425 128.56038 46.909374 127.99788Q47.39375 127.43538 47.39375 126.27913Q47.39375 124.99788 46.89375 124.40413Q46.409374 123.81038 45.690624 123.81038Q44.9875 123.81038 44.51875 124.388504Q44.05 124.951004 44.05 126.18538Z" fill-rule="nonzero"/><path fill="#9e9e9e" d="M20.675 141.6385Q20.01875 141.3885 19.690624 140.951Q19.378124 140.49788 19.378124 139.8885Q19.378124 138.951 20.05 138.31038Q20.7375 137.66975 21.846874 137.66975Q22.971874 137.66975 23.659374 138.326Q24.346874 138.98225 24.346874 139.91975Q24.346874 140.5135 24.034374 140.951Q23.721874 141.3885 23.08125 141.6385Q23.878124 141.8885 24.284374 142.46663Q24.690624 143.04475 24.690624 143.84163Q24.690624 144.93538 23.909374 145.68538Q23.14375 146.43538 21.8625 146.43538Q20.596874 146.43538 19.815624 145.68538Q19.034374 144.93538 19.034374 143.81038Q19.034374 142.96663 19.45625 142.40413Q19.89375 141.84163 20.675 141.6385ZM20.45625 139.84163Q20.45625 140.451 20.846874 140.84163Q21.253124 141.23225 21.878124 141.23225Q22.4875 141.23225 22.878124 140.85725Q23.26875 140.46663 23.26875 139.90413Q23.26875 139.326 22.8625 138.93538Q22.45625 138.52913 21.8625 138.52913Q21.253124 138.52913 20.846874 138.91975Q20.45625 139.31038 20.45625 139.84163ZM20.128124 143.81038Q20.128124 144.2635 20.33125 144.68538Q20.55 145.10725 20.971874 145.34163Q21.39375 145.576 21.878124 145.576Q22.628124 145.576 23.1125 145.09163Q23.6125 144.60725 23.6125 143.85725Q23.6125 143.09163 23.1125 142.59163Q22.6125 142.09163 21.846874 142.09163Q21.096874 142.09163 20.6125 142.59163Q20.128124 143.076 20.128124 143.81038ZM26.64375 146.29475L26.64375 145.09163L27.846874 145.09163L27.846874 146.29475L26.64375 146.29475ZM32.425 146.29475L32.425 144.23225L28.70625 144.23225L28.70625 143.2635L32.628124 137.701L33.4875 137.701L33.4875 143.2635L34.64375 143.2635L34.64375 144.23225L33.4875 144.23225L33.4875 146.29475L32.425 146.29475ZM32.425 143.2635L32.425 139.40413L29.7375 143.2635L32.425 143.2635ZM36.253124 139.7635Q36.253124 138.84163 36.70625 138.201Q37.175 137.56038 38.05 137.56038Q38.8625 137.56038 39.39375 138.1385Q39.925 138.71663 39.925 139.826Q39.925 140.91975 39.378124 141.5135Q38.846874 142.09163 38.065624 142.09163Q37.284374 142.09163 36.76875 141.5135Q36.253124 140.93538 36.253124 139.7635ZM38.08125 138.27913Q37.690624 138.27913 37.425 138.62288Q37.175 138.96663 37.175 139.87288Q37.175 140.701 37.425 141.04475Q37.690624 141.37288 38.08125 141.37288Q38.4875 141.37288 38.7375 141.02913Q39.003124 140.68538 39.003124 139.79475Q39.003124 138.951 38.7375 138.62288Q38.471874 138.27913 38.08125 138.27913ZM38.08125 146.60725L42.784374 137.56038L43.64375 137.56038L38.95625 146.60725L38.08125 146.60725ZM41.8 144.27913Q41.8 143.35725 42.253124 142.71663Q42.721874 142.076 43.6125 142.076Q44.425 142.076 44.95625 142.65413Q45.4875 143.21663 45.4875 144.34163Q45.4875 145.43538 44.940624 146.02913Q44.409374 146.60725 43.6125 146.60725Q42.846874 146.60725 42.315624 146.02913Q41.8 145.451 41.8 144.27913ZM43.64375 142.79475Q43.2375 142.79475 42.971874 143.1385Q42.721874 143.48225 42.721874 144.3885Q42.721874 145.201 42.9875 145.54475Q43.253124 145.8885 43.64375 145.8885Q44.034374 145.8885 44.3 145.54475Q44.565624 145.201 44.565624 144.29475Q44.565624 143.46663 44.3 143.1385Q44.034374 142.79475 43.64375 142.79475Z" fill-rule="nonzero"/><path stroke="#757575" stroke-width="1.0" stroke-linecap="butt" d="M18.55 133.79475L127.05 133.79475L167.16595 112.31709" fill-rule="nonzero"/><path fill="#9e9e9e" d="M169.16595 112.31709C169.16595 111.212524 168.27052 110.31709 167.16595 110.31709C166.06139 110.31709 165.16595 111.212524 165.16595 112.31709C165.16595 113.42166 166.06139 114.31709 167.16595 114.31709C168.27052 114.31709 169.16595 113.42166 169.16595 112.31709" fill-rule="nonzero"/><path fill="#1a1a1a" d="M19.471874 201.7897L19.471874 193.19595L20.628124 193.19595L25.14375 199.94595L25.14375 193.19595L26.2375 193.19595L26.2375 201.7897L25.065624 201.7897L20.55 195.0397L20.55 201.7897L19.471874 201.7897ZM32.425 201.7897L32.425 200.86783Q31.690624 201.93033 30.440624 201.93033Q29.89375 201.93033 29.409374 201.7272Q28.940624 201.50845 28.70625 201.19595Q28.471874 200.86783 28.378124 200.39908Q28.315624 200.1022 28.315624 199.4147L28.315624 195.57095L29.378124 195.57095L29.378124 199.02408Q29.378124 199.83658 29.440624 200.13345Q29.534374 200.5397 29.846874 200.7897Q30.175 201.02408 30.659374 201.02408Q31.128124 201.02408 31.534374 200.7897Q31.95625 200.5397 32.128124 200.11783Q32.315624 199.69595 32.315624 198.89908L32.315624 195.57095L33.3625 195.57095L33.3625 201.7897L32.425 201.7897ZM39.409374 199.50845L40.440624 199.64908Q40.26875 200.71158 39.565624 201.32095Q38.8625 201.93033 37.846874 201.93033Q36.565624 201.93033 35.784374 201.1022Q35.01875 200.25845 35.01875 198.69595Q35.01875 197.69595 35.346874 196.94595Q35.690624 196.18033 36.3625 195.80533Q37.05 195.43033 37.8625 195.43033Q38.8625 195.43033 39.503124 195.94595Q40.159374 196.44595 40.346874 197.39908L39.315624 197.55533Q39.175 196.93033 38.8 196.61783Q38.425 196.2897 37.89375 196.2897Q37.096874 196.2897 36.596874 196.86783Q36.096874 197.43033 36.096874 198.6647Q36.096874 199.93033 36.58125 200.49283Q37.065624 201.05533 37.83125 201.05533Q38.45625 201.05533 38.8625 200.68033Q39.284374 200.30533 39.409374 199.50845ZM41.315624 201.7897L41.315624 193.19595L42.378124 193.19595L42.378124 201.7897L41.315624 201.7897ZM48.596874 199.7897L49.690624 199.9147Q49.440624 200.86783 48.7375 201.39908Q48.034374 201.93033 46.95625 201.93033Q45.596874 201.93033 44.784374 201.08658Q43.9875 200.24283 43.9875 198.7272Q43.9875 197.1647 44.8 196.30533Q45.6125 195.43033 46.89375 195.43033Q48.14375 195.43033 48.925 196.27408Q49.721874 197.11783 49.721874 198.6647Q49.721874 198.75845 49.721874 198.94595L45.08125 198.94595Q45.14375 199.9772 45.659374 200.52408Q46.175 201.05533 46.95625 201.05533Q47.534374 201.05533 47.940624 200.75845Q48.3625 200.44595 48.596874 199.7897ZM45.14375 198.08658L48.6125 198.08658Q48.55 197.2897 48.221874 196.89908Q47.70625 196.2897 46.909374 196.2897Q46.175 196.2897 45.675 196.77408Q45.190624 197.25845 45.14375 198.08658ZM55.409374 201.02408Q54.815624 201.52408 54.26875 201.7272Q53.7375 201.93033 53.1125 201.93033Q52.08125 201.93033 51.534374 201.43033Q50.9875 200.93033 50.9875 200.14908Q50.9875 199.69595 51.190624 199.32095Q51.39375 198.93033 51.7375 198.71158Q52.08125 198.4772 52.503124 198.36783Q52.8 198.27408 53.440624 198.19595Q54.70625 198.05533 55.315624 197.83658Q55.315624 197.61783 55.315624 197.57095Q55.315624 196.9147 55.01875 196.64908Q54.6125 196.30533 53.815624 196.30533Q53.08125 196.30533 52.721874 196.57095Q52.3625 196.82095 52.190624 197.4772L51.159374 197.33658Q51.3 196.68033 51.628124 196.27408Q51.95625 195.86783 52.565624 195.64908Q53.175 195.43033 53.971874 195.43033Q54.76875 195.43033 55.26875 195.61783Q55.76875 195.80533 56.003124 196.08658Q56.2375 196.36783 56.33125 196.80533Q56.378124 197.07095 56.378124 197.77408L56.378124 199.18033Q56.378124 200.64908 56.440624 201.0397Q56.51875 201.43033 56.721874 201.7897L55.6125 201.7897Q55.45625 201.46158 55.409374 201.02408ZM55.315624 198.6647Q54.7375 198.89908 53.596874 199.07095Q52.940624 199.1647 52.675 199.2897Q52.409374 199.39908 52.253124 199.61783Q52.1125 199.83658 52.1125 200.11783Q52.1125 200.5397 52.425 200.82095Q52.753124 201.1022 53.3625 201.1022Q53.971874 201.1022 54.440624 200.83658Q54.925 200.57095 55.14375 200.1022Q55.315624 199.74283 55.315624 199.05533L55.315624 198.6647ZM58.33125 201.7897L58.33125 195.57095L59.284374 195.57095L59.284374 196.50845Q59.64375 195.8522 59.940624 195.64908Q60.253124 195.43033 60.628124 195.43033Q61.159374 195.43033 61.70625 195.75845L61.346874 196.74283Q60.95625 196.50845 60.58125 196.50845Q60.221874 196.50845 59.940624 196.7272Q59.675 196.93033 59.565624 197.30533Q59.378124 197.86783 59.378124 198.52408L59.378124 201.7897L58.33125 201.7897ZM65.50313 201.7897L65.50313 193.19595L71.70625 193.19595L71.70625 194.21158L66.64375 194.21158L66.64375 196.83658L71.39375 196.83658L71.39375 197.8522L66.64375 197.8522L66.64375 200.77408L71.90938 200.77408L71.90938 201.7897L65.50313 201.7897ZM73.34688 201.7897L73.34688 195.57095L74.28438 195.57095L74.28438 196.44595Q74.97188 195.43033 76.26875 195.43033Q76.83125 195.43033 77.3 195.63345Q77.78438 195.83658 78.01875 196.1647Q78.25313 196.49283 78.34688 196.93033Q78.39375 197.2272 78.39375 197.96158L78.39375 201.7897L77.34688 201.7897L77.34688 198.00845Q77.34688 197.3522 77.22188 197.0397Q77.09688 196.7272 76.78438 196.5397Q76.47188 196.33658 76.05 196.33658Q75.37813 196.33658 74.87813 196.77408Q74.39375 197.19595 74.39375 198.38345L74.39375 201.7897L73.34688 201.7897ZM84.59688 199.7897L85.69063 199.9147Q85.44063 200.86783 84.7375 201.39908Q84.03438 201.93033 82.95625 201.93033Q81.59688 201.93033 80.78438 201.08658Q79.9875 200.24283 79.9875 198.7272Q79.9875 197.1647 80.8 196.30533Q81.6125 195.43033 82.89375 195.43033Q84.14375 195.43033 84.925 196.27408Q85.72188 197.11783 85.72188 198.6647Q85.72188 198.75845 85.72188 198.94595L81.08125 198.94595Q81.14375 199.9772 81.65938 200.52408Q82.175 201.05533 82.95625 201.05533Q83.53438 201.05533 83.94063 200.75845Q84.3625 200.44595 84.59688 199.7897ZM81.14375 198.08658L84.6125 198.08658Q84.55 197.2897 84.22188 196.89908Q83.70625 196.2897 82.90938 196.2897Q82.175 196.2897 81.675 196.77408Q81.19063 197.25845 81.14375 198.08658ZM87.33125 201.7897L87.33125 195.57095L88.28438 195.57095L88.28438 196.50845Q88.64375 195.8522 88.94063 195.64908Q89.25313 195.43033 89.62813 195.43033Q90.15938 195.43033 90.70625 195.75845L90.34688 196.74283Q89.95625 196.50845 89.58125 196.50845Q89.22188 196.50845 88.94063 196.7272Q88.675 196.93033 88.56563 197.30533Q88.37813 197.86783 88.37813 198.52408L88.37813 201.7897L87.33125 201.7897ZM91.14375 202.30533L92.175 202.46158Q92.2375 202.93033 92.53438 203.14908Q92.925 203.44595 93.59688 203.44595Q94.33125 203.44595 94.72188 203.14908Q95.12813 202.8522 95.26875 202.33658Q95.3625 202.00845 95.34688 200.9772Q94.65938 201.7897 93.62813 201.7897Q92.34688 201.7897 91.64375 200.86783Q90.94063 199.93033 90.94063 198.64908Q90.94063 197.75845 91.25313 197.00845Q91.58125 196.24283 92.19063 195.83658Q92.8 195.43033 93.62813 195.43033Q94.7375 195.43033 95.45625 196.32095L95.45625 195.57095L96.425 195.57095L96.425 200.94595Q96.425 202.39908 96.12813 203.00845Q95.83125 203.61783 95.19063 203.96158Q94.55 204.32095 93.6125 204.32095Q92.50313 204.32095 91.81563 203.82095Q91.12813 203.32095 91.14375 202.30533ZM92.01875 198.57095Q92.01875 199.7897 92.50313 200.3522Q92.9875 200.9147 93.72188 200.9147Q94.45625 200.9147 94.94063 200.3522Q95.44063 199.7897 95.44063 198.6022Q95.44063 197.46158 94.925 196.88345Q94.425 196.30533 93.70625 196.30533Q93.00313 196.30533 92.50313 196.88345Q92.01875 197.44595 92.01875 198.57095ZM98.3 204.18033L98.175 203.19595Q98.51875 203.2897 98.78438 203.2897Q99.12813 203.2897 99.33125 203.1647Q99.55 203.05533 99.69063 202.8522Q99.78438 202.68033 100.01875 202.05533Q100.03438 201.9772 100.1125 201.80533L97.7375 195.57095L98.87813 195.57095L100.175 199.1647Q100.425 199.8522 100.62813 200.61783Q100.81563 199.88345 101.06563 199.19595L102.39375 195.57095L103.44063 195.57095L101.08125 201.89908Q100.69063 202.9147 100.4875 203.30533Q100.20625 203.83658 99.83125 204.07095Q99.47188 204.32095 98.97188 204.32095Q98.675 204.32095 98.3 204.18033Z" fill-rule="nonzero"/><path fill="#9e9e9e" d="M23.01875 218.7897L21.971874 218.7897L21.971874 212.07095Q21.58125 212.43033 20.95625 212.80533Q20.346874 213.1647 19.8625 213.33658L19.8625 212.32095Q20.7375 211.89908 21.39375 211.32095Q22.065624 210.7272 22.346874 210.1647L23.01875 210.1647L23.01875 218.7897ZM26.20625 216.80533L27.221874 216.71158Q27.346874 217.43033 27.70625 217.75845Q28.08125 218.07095 28.64375 218.07095Q29.128124 218.07095 29.4875 217.8522Q29.8625 217.61783 30.096874 217.25845Q30.33125 216.88345 30.4875 216.25845Q30.64375 215.61783 30.64375 214.96158Q30.64375 214.88345 30.64375 214.74283Q30.33125 215.24283 29.784374 215.57095Q29.2375 215.88345 28.596874 215.88345Q27.51875 215.88345 26.784374 215.11783Q26.05 214.33658 26.05 213.07095Q26.05 211.75845 26.815624 210.96158Q27.596874 210.1647 28.753124 210.1647Q29.58125 210.1647 30.26875 210.61783Q30.971874 211.07095 31.33125 211.9147Q31.690624 212.74283 31.690624 214.32095Q31.690624 215.96158 31.33125 216.94595Q30.9875 217.9147 30.26875 218.43033Q29.565624 218.93033 28.628124 218.93033Q27.6125 218.93033 26.971874 218.38345Q26.33125 217.82095 26.20625 216.80533ZM30.51875 213.00845Q30.51875 212.1022 30.034374 211.57095Q29.565624 211.0397 28.878124 211.0397Q28.175 211.0397 27.64375 211.61783Q27.128124 212.18033 27.128124 213.1022Q27.128124 213.9147 27.628124 214.43033Q28.128124 214.94595 28.846874 214.94595Q29.58125 214.94595 30.05 214.43033Q30.51875 213.9147 30.51875 213.00845ZM33.64375 218.7897L33.64375 217.58658L34.846874 217.58658L34.846874 218.7897L33.64375 218.7897ZM36.1125 211.32095L36.1125 210.30533L41.675 210.30533L41.675 211.13345Q40.8625 212.00845 40.05 213.46158Q39.253124 214.89908 38.815624 216.43033Q38.4875 217.50845 38.409374 218.7897L37.315624 218.7897Q37.33125 217.77408 37.70625 216.33658Q38.096874 214.89908 38.8 213.57095Q39.51875 212.24283 40.33125 211.32095L36.1125 211.32095ZM43.253124 212.25845Q43.253124 211.33658 43.70625 210.69595Q44.175 210.05533 45.05 210.05533Q45.8625 210.05533 46.39375 210.63345Q46.925 211.21158 46.925 212.32095Q46.925 213.4147 46.378124 214.00845Q45.846874 214.58658 45.065624 214.58658Q44.284374 214.58658 43.76875 214.00845Q43.253124 213.43033 43.253124 212.25845ZM45.08125 210.77408Q44.690624 210.77408 44.425 211.11783Q44.175 211.46158 44.175 212.36783Q44.175 213.19595 44.425 213.5397Q44.690624 213.86783 45.08125 213.86783Q45.4875 213.86783 45.7375 213.52408Q46.003124 213.18033 46.003124 212.2897Q46.003124 211.44595 45.7375 211.11783Q45.471874 210.77408 45.08125 210.77408ZM45.08125 219.1022L49.784374 210.05533L50.64375 210.05533L45.95625 219.1022L45.08125 219.1022ZM48.8 216.77408Q48.8 215.8522 49.253124 215.21158Q49.721874 214.57095 50.6125 214.57095Q51.425 214.57095 51.95625 215.14908Q52.4875 215.71158 52.4875 216.83658Q52.4875 217.93033 51.940624 218.52408Q51.409374 219.1022 50.6125 219.1022Q49.846874 219.1022 49.315624 218.52408Q48.8 217.94595 48.8 216.77408ZM50.64375 215.2897Q50.2375 215.2897 49.971874 215.63345Q49.721874 215.9772 49.721874 216.88345Q49.721874 217.69595 49.9875 218.0397Q50.253124 218.38345 50.64375 218.38345Q51.034374 218.38345 51.3 218.0397Q51.565624 217.69595 51.565624 216.7897Q51.565624 215.96158 51.3 215.63345Q51.034374 215.2897 50.64375 215.2897Z" fill-rule="nonzero"/><path stroke="#757575" stroke-width="1.0" stroke-linecap="butt" d="M18.55 206.2897L127.05 206.2897L148.70485 206.2897" fill-rule="nonzero"/><path fill="#9e9e9e" d="M150.70485 206.2897C150.70485 205.18513 149.80942 204.2897 148.70485 204.2897C147.60028 204.2897 146.70485 205.18513 146.70485 206.2897C146.70485 207.39427 147.60028 208.2897 148.70485 208.2897C149.80942 208.2897 150.70485 207.39427 150.70485 206.2897" fill-rule="nonzero"/><path fill="#1a1a1a" d="M517.4344 203.77997L517.4344 195.18622L523.23126 195.18622L523.23126 196.20184L518.575 196.20184L518.575 198.8581L522.60626 198.8581L522.60626 199.87372L518.575 199.87372L518.575 203.77997L517.4344 203.77997ZM523.85626 200.6706Q523.85626 198.93622 524.8094 198.1081Q525.60626 197.4206 526.7625 197.4206Q528.04376 197.4206 528.85626 198.26434Q529.6844 199.09247 529.6844 200.57684Q529.6844 201.77997 529.325 202.46747Q528.96564 203.15497 528.2625 203.5456Q527.575 203.9206 526.7625 203.9206Q525.46564 203.9206 524.65314 203.09247Q523.85626 202.24872 523.85626 200.6706ZM524.9344 200.6706Q524.9344 201.8581 525.45 202.45184Q525.98126 203.0456 526.7625 203.0456Q527.5594 203.0456 528.075 202.45184Q528.59064 201.8581 528.59064 200.63934Q528.59064 199.4831 528.0594 198.88934Q527.54376 198.2956 526.7625 198.2956Q525.98126 198.2956 525.45 198.88934Q524.9344 199.46747 524.9344 200.6706ZM530.825 201.9206L531.85626 201.76434Q531.95 202.38934 532.34064 202.71747Q532.7469 203.0456 533.48126 203.0456Q534.2 203.0456 534.54376 202.76434Q534.90314 202.46747 534.90314 202.06122Q534.90314 201.70184 534.59064 201.49872Q534.3719 201.3581 533.5125 201.13934Q532.35626 200.84247 531.90314 200.63934Q531.46564 200.4206 531.23126 200.0456Q530.9969 199.6706 530.9969 199.20184Q530.9969 198.7956 531.1844 198.43622Q531.3719 198.07684 531.7 197.84247Q531.95 197.6706 532.3719 197.5456Q532.79376 197.4206 533.29376 197.4206Q534.0125 197.4206 534.5594 197.63934Q535.1219 197.84247 535.3875 198.20184Q535.65314 198.56122 535.7469 199.15497L534.71564 199.2956Q534.65314 198.82684 534.3094 198.56122Q533.98126 198.27997 533.35626 198.27997Q532.6375 198.27997 532.325 198.52997Q532.0125 198.76434 532.0125 199.09247Q532.0125 199.2956 532.1375 199.45184Q532.27814 199.62372 532.54376 199.7331Q532.7 199.7956 533.48126 199.99872Q534.60626 200.31122 535.04376 200.49872Q535.48126 200.68622 535.73126 201.0456Q535.98126 201.40497 535.98126 201.95184Q535.98126 202.4831 535.66876 202.95184Q535.3719 203.40497 534.79376 203.6706Q534.21564 203.9206 533.48126 203.9206Q532.2625 203.9206 531.6219 203.4206Q530.9969 202.90497 530.825 201.9206ZM536.825 201.9206L537.85626 201.76434Q537.95 202.38934 538.34064 202.71747Q538.7469 203.0456 539.48126 203.0456Q540.2 203.0456 540.54376 202.76434Q540.90314 202.46747 540.90314 202.06122Q540.90314 201.70184 540.59064 201.49872Q540.3719 201.3581 539.5125 201.13934Q538.35626 200.84247 537.90314 200.63934Q537.46564 200.4206 537.23126 200.0456Q536.9969 199.6706 536.9969 199.20184Q536.9969 198.7956 537.1844 198.43622Q537.3719 198.07684 537.7 197.84247Q537.95 197.6706 538.3719 197.5456Q538.79376 197.4206 539.29376 197.4206Q540.0125 197.4206 540.5594 197.63934Q541.1219 197.84247 541.3875 198.20184Q541.65314 198.56122 541.7469 199.15497L540.71564 199.2956Q540.65314 198.82684 540.3094 198.56122Q539.98126 198.27997 539.35626 198.27997Q538.6375 198.27997 538.325 198.52997Q538.0125 198.76434 538.0125 199.09247Q538.0125 199.2956 538.1375 199.45184Q538.27814 199.62372 538.54376 199.7331Q538.7 199.7956 539.48126 199.99872Q540.60626 200.31122 541.04376 200.49872Q541.48126 200.68622 541.73126 201.0456Q541.98126 201.40497 541.98126 201.95184Q541.98126 202.4831 541.66876 202.95184Q541.3719 203.40497 540.79376 203.6706Q540.21564 203.9206 539.48126 203.9206Q538.2625 203.9206 537.6219 203.4206Q536.9969 202.90497 536.825 201.9206ZM543.2469 196.40497L543.2469 195.18622L544.3094 195.18622L544.3094 196.40497L543.2469 196.40497ZM543.2469 203.77997L543.2469 197.56122L544.3094 197.56122L544.3094 203.77997L543.2469 203.77997ZM546.21564 203.77997L546.21564 195.18622L547.27814 195.18622L547.27814 203.77997L546.21564 203.77997ZM552.4344 203.77997L552.4344 195.18622L558.23126 195.18622L558.23126 196.20184L553.575 196.20184L553.575 198.8581L557.60626 198.8581L557.60626 199.87372L553.575 199.87372L553.575 203.77997L552.4344 203.77997ZM563.325 203.77997L563.325 202.8581Q562.59064 203.9206 561.34064 203.9206Q560.79376 203.9206 560.3094 203.71747Q559.84064 203.49872 559.60626 203.18622Q559.3719 202.8581 559.27814 202.38934Q559.21564 202.09247 559.21564 201.40497L559.21564 197.56122L560.27814 197.56122L560.27814 201.01434Q560.27814 201.82684 560.34064 202.12372Q560.4344 202.52997 560.7469 202.77997Q561.075 203.01434 561.5594 203.01434Q562.02814 203.01434 562.4344 202.77997Q562.85626 202.52997 563.02814 202.1081Q563.21564 201.68622 563.21564 200.88934L563.21564 197.56122L564.2625 197.56122L564.2625 203.77997L563.325 203.77997ZM570.4969 201.77997L571.59064 201.90497Q571.34064 202.8581 570.6375 203.38934Q569.9344 203.9206 568.85626 203.9206Q567.4969 203.9206 566.6844 203.07684Q565.8875 202.2331 565.8875 200.71747Q565.8875 199.15497 566.7 198.2956Q567.5125 197.4206 568.79376 197.4206Q570.04376 197.4206 570.825 198.26434Q571.6219 199.1081 571.6219 200.65497Q571.6219 200.74872 571.6219 200.93622L566.98126 200.93622Q567.04376 201.96747 567.5594 202.51434Q568.075 203.0456 568.85626 203.0456Q569.4344 203.0456 569.84064 202.74872Q570.2625 202.43622 570.4969 201.77997ZM567.04376 200.07684L570.5125 200.07684Q570.45 199.27997 570.1219 198.88934Q569.60626 198.27997 568.8094 198.27997Q568.075 198.27997 567.575 198.76434Q567.09064 199.24872 567.04376 200.07684ZM573.21564 203.77997L573.21564 195.18622L574.27814 195.18622L574.27814 203.77997L573.21564 203.77997ZM575.825 201.9206L576.85626 201.76434Q576.95 202.38934 577.34064 202.71747Q577.7469 203.0456 578.48126 203.0456Q579.2 203.0456 579.54376 202.76434Q579.90314 202.46747 579.90314 202.06122Q579.90314 201.70184 579.59064 201.49872Q579.3719 201.3581 578.5125 201.13934Q577.35626 200.84247 576.90314 200.63934Q576.46564 200.4206 576.23126 200.0456Q575.9969 199.6706 575.9969 199.20184Q575.9969 198.7956 576.1844 198.43622Q576.3719 198.07684 576.7 197.84247Q576.95 197.6706 577.3719 197.5456Q577.79376 197.4206 578.29376 197.4206Q579.0125 197.4206 579.5594 197.63934Q580.1219 197.84247 580.3875 198.20184Q580.65314 198.56122 580.7469 199.15497L579.71564 199.2956Q579.65314 198.82684 579.3094 198.56122Q578.98126 198.27997 578.35626 198.27997Q577.6375 198.27997 577.325 198.52997Q577.0125 198.76434 577.0125 199.09247Q577.0125 199.2956 577.1375 199.45184Q577.27814 199.62372 577.54376 199.7331Q577.7 199.7956 578.48126 199.99872Q579.60626 200.31122 580.04376 200.49872Q580.48126 200.68622 580.73126 201.0456Q580.98126 201.40497 580.98126 201.95184Q580.98126 202.4831 580.66876 202.95184Q580.3719 203.40497 579.79376 203.6706Q579.21564 203.9206 578.48126 203.9206Q577.2625 203.9206 576.6219 203.4206Q575.9969 202.90497 575.825 201.9206Z" fill-rule="nonzero"/><path fill="#9e9e9e" d="M552.41876 214.2956L551.3719 214.37372Q551.23126 213.74872 550.98126 213.46747Q550.54376 213.01434 549.91876 213.01434Q549.41876 213.01434 549.02814 213.2956Q548.54376 213.6706 548.2469 214.37372Q547.96564 215.06122 547.95 216.34247Q548.325 215.76434 548.8719 215.4831Q549.4344 215.20184 550.04376 215.20184Q551.09064 215.20184 551.825 215.9831Q552.575 216.76434 552.575 217.9831Q552.575 218.7956 552.21564 219.49872Q551.8719 220.18622 551.2625 220.56122Q550.65314 220.9206 549.8875 220.9206Q548.5594 220.9206 547.73126 219.95184Q546.90314 218.9831 546.90314 216.76434Q546.90314 214.26434 547.825 213.13934Q548.6219 212.15497 549.98126 212.15497Q550.9969 212.15497 551.6375 212.7331Q552.29376 213.2956 552.41876 214.2956ZM548.1219 217.99872Q548.1219 218.5456 548.34064 219.0456Q548.575 219.52997 548.98126 219.7956Q549.40314 220.06122 549.8719 220.06122Q550.52814 220.06122 551.0125 219.52997Q551.4969 218.9831 551.4969 218.06122Q551.4969 217.1706 551.0125 216.65497Q550.54376 216.13934 549.825 216.13934Q549.10626 216.13934 548.60626 216.65497Q548.1219 217.1706 548.1219 217.99872ZM553.95 216.5456Q553.95 215.01434 554.2625 214.09247Q554.575 213.15497 555.1844 212.65497Q555.8094 212.15497 556.7469 212.15497Q557.4344 212.15497 557.95 212.43622Q558.48126 212.71747 558.825 213.24872Q559.16876 213.76434 559.35626 214.51434Q559.54376 215.26434 559.54376 216.5456Q559.54376 218.06122 559.23126 218.9831Q558.9344 219.90497 558.3094 220.4206Q557.7 220.9206 556.7469 220.9206Q555.5125 220.9206 554.79376 220.02997Q553.95 218.96747 553.95 216.5456ZM555.02814 216.5456Q555.02814 218.65497 555.52814 219.3581Q556.02814 220.06122 556.7469 220.06122Q557.48126 220.06122 557.96564 219.3581Q558.46564 218.65497 558.46564 216.5456Q558.46564 214.4206 557.96564 213.7331Q557.48126 213.02997 556.73126 213.02997Q556.0125 213.02997 555.575 213.63934Q555.02814 214.4206 555.02814 216.5456ZM561.54376 220.77997L561.54376 219.57684L562.7469 219.57684L562.7469 220.77997L561.54376 220.77997ZM563.95 218.51434L565.0125 218.37372Q565.1844 219.26434 565.6219 219.6706Q566.0594 220.06122 566.6844 220.06122Q567.4344 220.06122 567.95 219.5456Q568.46564 219.02997 568.46564 218.26434Q568.46564 217.5456 567.98126 217.07684Q567.5125 216.59247 566.77814 216.59247Q566.48126 216.59247 566.02814 216.71747L566.15314 215.77997Q566.2625 215.7956 566.325 215.7956Q566.9969 215.7956 567.52814 215.45184Q568.075 215.09247 568.075 214.3581Q568.075 213.77997 567.6844 213.40497Q567.29376 213.01434 566.66876 213.01434Q566.0594 213.01434 565.6375 213.40497Q565.23126 213.7956 565.1219 214.56122L564.0594 214.37372Q564.2469 213.32684 564.9344 212.74872Q565.6219 212.15497 566.6375 212.15497Q567.34064 212.15497 567.9344 212.46747Q568.52814 212.76434 568.84064 213.27997Q569.15314 213.7956 569.15314 214.38934Q569.15314 214.93622 568.85626 215.40497Q568.5594 215.8581 567.98126 216.12372Q568.73126 216.2956 569.15314 216.8581Q569.575 217.40497 569.575 218.24872Q569.575 219.37372 568.7469 220.15497Q567.9344 220.93622 566.6844 220.93622Q565.5594 220.93622 564.8094 220.26434Q564.0594 219.57684 563.95 218.51434ZM571.15314 214.24872Q571.15314 213.32684 571.60626 212.68622Q572.075 212.0456 572.95 212.0456Q573.7625 212.0456 574.29376 212.62372Q574.825 213.20184 574.825 214.31122Q574.825 215.40497 574.27814 215.99872Q573.7469 216.57684 572.96564 216.57684Q572.1844 216.57684 571.66876 215.99872Q571.15314 215.4206 571.15314 214.24872ZM572.98126 212.76434Q572.59064 212.76434 572.325 213.1081Q572.075 213.45184 572.075 214.3581Q572.075 215.18622 572.325 215.52997Q572.59064 215.8581 572.98126 215.8581Q573.3875 215.8581 573.6375 215.51434Q573.90314 215.1706 573.90314 214.27997Q573.90314 213.43622 573.6375 213.1081Q573.3719 212.76434 572.98126 212.76434ZM572.98126 221.09247L577.6844 212.0456L578.54376 212.0456L573.85626 221.09247L572.98126 221.09247ZM576.7 218.76434Q576.7 217.84247 577.15314 217.20184Q577.6219 216.56122 578.5125 216.56122Q579.325 216.56122 579.85626 217.13934Q580.3875 217.70184 580.3875 218.82684Q580.3875 219.9206 579.84064 220.51434Q579.3094 221.09247 578.5125 221.09247Q577.7469 221.09247 577.21564 220.51434Q576.7 219.93622 576.7 218.76434ZM578.54376 217.27997Q578.1375 217.27997 577.8719 217.62372Q577.6219 217.96747 577.6219 218.87372Q577.6219 219.68622 577.8875 220.02997Q578.15314 220.37372 578.54376 220.37372Q578.9344 220.37372 579.2 220.02997Q579.46564 219.68622 579.46564 218.77997Q579.46564 217.95184 579.2 217.62372Q578.9344 217.27997 578.54376 217.27997Z" fill-rule="nonzero"/><path stroke="#757575" stroke-width="1.0" stroke-linecap="butt" d="M581.45 208.27997L472.95 208.27997L450.37134 208.27997" fill-rule="nonzero"/><path fill="#9e9e9e" d="M452.37134 208.27997C452.37134 207.1754 451.4759 206.27997 450.37134 206.27997C449.26675 206.27997 448.37134 207.1754 448.37134 208.27997C448.37134 209.38454 449.26675 210.27997 450.37134 210.27997C451.4759 210.27997 452.37134 209.38454 452.37134 208.27997" fill-rule="nonzero"/></svg>